<svg xmlns="http://www.w3.org/2000/svg" viewBox="0 0 309.8965 216"><defs><style>.cls-1{fill:#fff;}</style></defs><title>5Ресурс 1</title><g id="Слой_2" data-name="Слой 2"><g id="Слой_1-2" data-name="Слой 1"><path class="cls-1" d="M45.6347,191.3975H37.6606V159.1508L26.1936,191.3975H19.4411L7.9741,159.1508v32.2467H0V148.3241H10.8271l11.9908,32.9453,11.9906-32.9453H45.6347Z"/><path class="cls-1" d="M96.7411,170.0645a21.4376,21.4376,0,0,1-6.5483,15.8415A22.0629,22.0629,0,0,1,74.04,192.3874a22.0642,22.0642,0,0,1-16.1536-6.4815,21.4376,21.4376,0,0,1-6.5483-15.8415,21.6955,21.6955,0,0,1,6.5483-15.9568A21.9613,21.9613,0,0,1,74.04,147.5671a21.96,21.96,0,0,1,16.1522,6.5406A21.6955,21.6955,0,0,1,96.7411,170.0645ZM88.767,169.89a14.4972,14.4972,0,0,0-14.7265-14.58,14.6688,14.6688,0,1,0,10.5062,25.0089A14.3977,14.3977,0,0,0,88.767,169.89Z"/><path class="cls-1" d="M129.9192,161.77a12.7871,12.7871,0,0,1-2.9684,8.6729q-4.0169,4.6577-12.4565,4.6569H110.42v16.2979h-7.9747V148.3241h12.0494q8.9625,0,12.8636,5.18A13.4341,13.4341,0,0,1,129.9192,161.77Zm-7.9745-.0584a4.8879,4.8879,0,0,0-2.62-4.7728,9.0536,9.0536,0,0,0-4.1909-.8735H110.42v11.2924h4.7146q3.55,0,5.1808-1.4547A5.326,5.326,0,0,0,121.9447,161.7114Z"/><path class="cls-1" d="M158.15,191.3975H135.0416V148.3241H158.15v7.741h-15.134v9.9536H157.51v7.7419H143.0159v9.8952H158.15Z"/><path class="cls-1" d="M204.017,191.3975h-8.7887l-4.424-11.1175H174.9718l-4.424,11.1175h-8.7891l17.9277-43.0734H186.09Zm-16.239-18.8594-4.89-12.5723-4.89,12.5723Z"/><path class="cls-1" d="M245.927,191.3975h-8.79L225.38,159.3835l-11.7584,32.0141h-8.7891l17.0549-43.0734h6.9853Z"/><path class="cls-1" d="M270.5483,156.0651h-7.9741v35.3324H254.6V156.0651h-7.9756v-7.741h23.9238Z"/><path class="cls-1" d="M309.8965,191.3975h-7.9746V161.13l-19.209,30.268h-7.9741V148.3241h7.9741V178.592l19.209-30.2678h7.9746Z"/><path class="cls-1" d="M54.6562,212.1672H53.1789v-9.5791H47.0724v9.5791H45.5955V201.2509h9.0607Z"/><path class="cls-1" d="M68.1673,206.7192A5.5933,5.5933,0,1,1,66.53,202.628,5.5251,5.5251,0,0,1,68.1673,206.7192Zm-1.4773,0a4.356,4.356,0,0,0-1.2075-3.1233,4.2638,4.2638,0,0,0-6.0571-.01,4.6734,4.6734,0,0,0,0,6.2464,4.2883,4.2883,0,0,0,6.0571.01A4.3137,4.3137,0,0,0,66.69,206.7192Z"/><path class="cls-1" d="M81.7578,206.7591a5.4276,5.4276,0,0,1-1.6566,4.0512,5.756,5.756,0,0,1-4.1914,1.6166,4.7483,4.7483,0,0,1-2.9338-.8983,4.6653,4.6653,0,0,1-1.2172-1.3967L71.7189,216H70.242V201.2509h1.3974v1.876a4.97,4.97,0,0,1,2.295-1.7759,5.58,5.58,0,0,1,2.0152-.3595,5.52,5.52,0,0,1,4.3308,1.8359A5.7139,5.7139,0,0,1,81.7578,206.7591Zm-1.4773-.02a4.3047,4.3047,0,0,0-1.2471-3.1432,4.1558,4.1558,0,0,0-3.0837-1.2675,4.0874,4.0874,0,0,0-3.093,1.2774,4.4171,4.4171,0,0,0-1.2172,3.1731,4.2364,4.2364,0,0,0,1.2068,3.0638A4.0825,4.0825,0,0,0,75.91,211.09a4.2548,4.2548,0,0,0,3.1032-1.2471A4.1785,4.1785,0,0,0,80.28,206.7392Z"/><path class="cls-1" d="M89.94,202.5881H87.1261v9.5791H85.6492v-9.5791H82.8351v-1.3372H89.94Z"/><path class="cls-1" d="M102.5525,212.1672h-1.3967v-2.0354a5.2923,5.2923,0,0,1-2.0557,1.816,5.0968,5.0968,0,0,1-2.235.479A5.76,5.76,0,0,1,92.7042,210.8a5.7064,5.7064,0,0,1,4.121-9.8089,5.4048,5.4048,0,0,1,2.5646.549,4.7411,4.7411,0,0,1,1.7261,1.6064l.04-1.8959h1.3967Zm-1.3967-5.3882a4.3979,4.3979,0,0,0-1.2376-3.1532,4.097,4.097,0,0,0-3.093-1.2974,4.1745,4.1745,0,0,0-3.0638,1.2675,4.2934,4.2934,0,0,0-1.267,3.1632,4.1221,4.1221,0,0,0,1.2874,3.0837A4.2741,4.2741,0,0,0,96.865,211.09a4.2927,4.2927,0,0,0,4.2907-4.3109Z"/><path class="cls-1" d="M114.8259,212.1672H113.23l-3.8321-9.04-3.8314,9.04H103.97l4.669-10.9163h1.5375Z"/><path class="cls-1" d="M129.954,212.1672h-1.4773v-4.93H122.37v4.93h-1.4773V201.2509H122.37v4.65h6.1067v-4.65h1.4773Z"/><path class="cls-1" d="M143.3444,207.2377h-9.7582a3.5677,3.5677,0,0,0,1.2172,2.7344,4.1817,4.1817,0,0,0,2.9329,1.1178,4.0537,4.0537,0,0,0,2.2753-.6687,4.191,4.191,0,0,0,1.5366-1.806h1.5369a5.8376,5.8376,0,0,1-2.0752,2.7935,5.8342,5.8342,0,0,1-7.3346-.6083,5.5359,5.5359,0,0,1-1.6267-4.0811,5.7225,5.7225,0,0,1,1.4375-3.8719,5.3641,5.3641,0,0,1,4.25-1.8558,5.0486,5.0486,0,0,1,4.3509,2.0557A6.8992,6.8992,0,0,1,143.3444,207.2377Zm-1.5966-1.337a4.36,4.36,0,0,0-1.4167-2.6042,3.8461,3.8461,0,0,0-2.5947-.968,4.038,4.038,0,0,0-2.7235.9879,4.2554,4.2554,0,0,0-1.4266,2.5843Z"/><path class="cls-1" d="M156.7554,214.941h-1.4773v-2.7738h-9.42v2.7738h-1.4764V210.83H145.52l4.25-9.5793h1.5966l4.2511,9.5793h1.1375ZM154.021,210.83l-3.4527-7.9232-3.4518,7.9232Z"/><path class="cls-1" d="M165.7561,209.014a2.9639,2.9639,0,0,1-.8777,2.2155,3.6058,3.6058,0,0,1-2.6343.9377h-4.0318V201.2509h3.9113a3.2407,3.2407,0,0,1,2.5744.9578,2.8763,2.8763,0,0,1,.6585,1.9559,2.4276,2.4276,0,0,1-.3889,1.3569,2.3884,2.3884,0,0,1-1.068.898,2.3434,2.3434,0,0,1,1.3476.9286A2.78,2.78,0,0,1,165.7561,209.014Zm-1.876-4.8494a1.455,1.455,0,0,0-.4691-1.1871,2.127,2.127,0,0,0-1.3872-.3894h-2.3346v3.3126h2.3346a1.8965,1.8965,0,0,0,1.3678-.4686A1.674,1.674,0,0,0,163.88,204.1646Zm.3991,4.8694a1.6048,1.6048,0,0,0-.5782-1.3368,2.544,2.544,0,0,0-1.617-.46h-2.3948V210.83h2.3948a2.2678,2.2678,0,0,0,1.7361-.599A1.6592,1.6592,0,0,0,164.2792,209.034Z"/><path class="cls-1" d="M177.2508,212.1672h-1.4764v-8.821l-6.5061,8.821h-1.4771V201.2509h1.4771v8.8212l6.5061-8.8212h1.4764Z"/><path class="cls-1" d="M184.8344,206.6394l-4.3512,5.5279H178.627l4.47-5.6877-4.0707-5.2286h1.7361Zm1.9953,5.5279h-1.4764V201.2509H186.83Zm6.7252,0H191.7l-4.3509-5.5279,4.0718-5.3884h1.7361l-4.0718,5.2286Z"/><path class="cls-1" d="M204.3918,212.1672h-1.4762v-8.821l-6.5063,8.821h-1.4769V201.2509h1.4769v8.8212l6.5063-8.8212h1.4762Z"/><path class="cls-1" d="M218.76,212.1672h-1.476v-9.28l-3.8117,9.28H212.195l-3.8119-9.28v9.28h-1.4771V201.2509h2.2755l3.6517,8.921,3.6526-8.921H218.76Z"/><path class="cls-1" d="M232.2712,206.7192a5.5929,5.5929,0,1,1-1.6369-4.0913A5.5258,5.5258,0,0,1,232.2712,206.7192Zm-1.4769,0a4.3562,4.3562,0,0,0-1.2077-3.1233,4.2636,4.2636,0,0,0-6.0569-.01,4.6721,4.6721,0,0,0,0,6.2464,4.288,4.288,0,0,0,6.0569.01A4.3139,4.3139,0,0,0,230.7943,206.7192Z"/><path class="cls-1" d="M245.0827,204.5639h-1.6564a3.9912,3.9912,0,0,0-1.5158-1.6464,4.104,4.104,0,0,0-2.1562-.589,4.1968,4.1968,0,0,0-3.1231,1.2475,4.5088,4.5088,0,0,0,.05,6.2365,4.1886,4.1886,0,0,0,3.0728,1.2774,4.25,4.25,0,0,0,2.1155-.5492,4.0475,4.0475,0,0,0,1.5566-1.5665h1.6369a6.2766,6.2766,0,0,1-1.7963,2.3351,5.7863,5.7863,0,1,1-3.5127-10.3178,5.6584,5.6584,0,0,1,3.2634.958A5.56,5.56,0,0,1,245.0827,204.5639Z"/><path class="cls-1" d="M253.3448,202.5881h-2.8141v9.5791h-1.4769v-9.5791H246.24v-1.3372h7.1044Z"/><path class="cls-1" d="M264.301,212.1672h-1.4762v-8.821l-6.5063,8.821h-1.4769V201.2509h1.4769v8.8212l6.5063-8.8212h1.4762Z"/><path class="cls-1" d="M209.6959,53.1274a13.0856,13.0856,0,0,0-10.6-3.7959,13.0135,13.0135,0,0,0-3.7693-10.5738c-3.4424-3.4424-12.5648-8.0238-20.3052-.2837l-5.0254,5.0254-20.0705-20.07a7.0742,7.0742,0,0,1,10.0031-10.0026l20.07,20.07,4.9556-4.9552L164.8834,8.4711c-7.74-7.74-16.8629-3.1582-20.3052.2841a13.0861,13.0861,0,0,0-3.7959,10.6,13.0135,13.0135,0,0,0-10.5734,3.7693c-3.4428,3.4424-8.0241,12.5652-.2837,20.3052l5.02,5.0208-20.07,20.07a7.0739,7.0739,0,0,1-10.0026-10.0022l20.07-20.0705-4.9556-4.9556-20.07,20.07c-7.74,7.74-3.1591,16.8629.2841,20.3052a13.0858,13.0858,0,0,0,10.6,3.7963,13.0141,13.0141,0,0,0,3.7689,10.573c3.4428,3.4428,12.5652,8.0246,20.3052.2842l5.0258-5.0254,20.0751,20.0751a7.0741,7.0741,0,0,1-10.0026,10.0026l-20.0705-20.07-4.9552,4.9552,20.0705,20.0705c7.74,7.74,16.8624,3.1586,20.3052-.2842a13.0857,13.0857,0,0,0,3.7954-10.6,13.0144,13.0144,0,0,0,10.5738-3.7693c3.4424-3.4424,8.0237-12.5652.2837-20.3052l-5.0254-5.0254,20.0705-20.0705A7.0741,7.0741,0,0,1,205.0244,68.477L184.9539,88.5475l4.9556,4.9556,20.07-20.0705C217.72,65.6922,213.1383,56.57,209.6959,53.1274ZM134.8808,38.4741a7.0739,7.0739,0,0,1,10.0026-10.0022l20.07,20.07L154.9509,58.5442ZM129.92,83.5653a7.0742,7.0742,0,0,1-10.0031-10.0026l20.0705-20.0705,9.74,9.7405.2625.2625Zm45.1008,4.96a7.0741,7.0741,0,0,1-10.0026,10.0026L144.9433,78.4531,154.946,68.45l.3277.3282Zm14.9583-35.0932-20.07,20.07L159.9066,63.5l20.07-20.07A7.0741,7.0741,0,0,1,189.9793,53.4323Z"/><path class="cls-1" d="M154.9485,0a63.5,63.5,0,0,1,63.5,63.5V0Z"/><path class="cls-1" d="M154.9505,127h63.4977V63.5A63.5,63.5,0,0,1,154.9505,127Z"/><path class="cls-1" d="M154.9485,0h-63.5V63.5A63.5,63.5,0,0,1,154.9485,0Z"/><path class="cls-1" d="M91.4482,63.5V127h63.4981A63.5,63.5,0,0,1,91.4482,63.5Z"/></g></g></svg>