<?xml version="1.0" encoding="UTF-8" standalone="no"?>
<svg
   xmlns:dc="http://purl.org/dc/elements/1.1/"
   xmlns:cc="http://creativecommons.org/ns#"
   xmlns:rdf="http://www.w3.org/1999/02/22-rdf-syntax-ns#"
   xmlns:svg="http://www.w3.org/2000/svg"
   xmlns="http://www.w3.org/2000/svg"
   xmlns:sodipodi="http://sodipodi.sourceforge.net/DTD/sodipodi-0.dtd"
   xmlns:inkscape="http://www.inkscape.org/namespaces/inkscape"
   viewBox="0 0 13.3333 20"
   version="1.1"
   id="svg3777"
   sodipodi:docname="ico-view-bb2.svg"
   inkscape:version="0.92.3 (unknown)">
  <metadata
     id="metadata3781">
    <rdf:RDF>
      <cc:Work
         rdf:about="">
        <dc:format>image/svg+xml</dc:format>
        <dc:type
           rdf:resource="http://purl.org/dc/dcmitype/StillImage" />
        <dc:title>morealtiРесурс 13</dc:title>
      </cc:Work>
    </rdf:RDF>
  </metadata>
  <sodipodi:namedview
     pagecolor="#ffffff"
     bordercolor="#666666"
     borderopacity="1"
     objecttolerance="10"
     gridtolerance="10"
     guidetolerance="10"
     inkscape:pageopacity="0"
     inkscape:pageshadow="2"
     inkscape:window-width="1855"
     inkscape:window-height="1056"
     id="namedview3779"
     showgrid="false"
     inkscape:zoom="45.7"
     inkscape:cx="3.0889693"
     inkscape:cy="10"
     inkscape:window-x="65"
     inkscape:window-y="24"
     inkscape:window-maximized="1"
     inkscape:current-layer="svg3777" />
  <defs
     id="defs3769">
    <style
       id="style3767">.cls-1{fill:#3c3c3b;}</style>
  </defs>
  <title
     id="title3771">morealtiРесурс 13</title>
  <g
     id="Слой_2"
     data-name="Слой 2">
    <g
       id="Слой_2-2"
       data-name="Слой 2">
      <path
         class="cls-1"
         d="M6.6667,0A6.6739,6.6739,0,0,0,0,6.6667c0,3.5367,6.06,12.7558,6.3192,13.1458a.4158.4158,0,0,0,.695,0c.2583-.39,6.3192-9.6092,6.3192-13.1458A6.6739,6.6739,0,0,0,6.6667,0Zm0,9.5833A2.9167,2.9167,0,1,1,9.5833,6.6667,2.92,2.92,0,0,1,6.6667,9.5833Z"
         id="path3773" />
    </g>
  </g>
  <path
     style="fill:#858585;fill-opacity:0;stroke-width:0.02188184"
     d="M 6.5330373,19.967363 C 6.4192233,19.93103 6.3477829,19.84319 6.0290664,19.347708 3.3077925,15.117166 1.1741938,11.067305 0.40463601,8.6717724 0.00969253,7.442365 -0.06990167,6.6350847 0.10043549,5.5864333 0.27923474,4.4856862 0.75128082,3.4206545 1.4533797,2.5339168 1.6679746,2.2628875 2.2408934,1.6858869 2.5047242,1.4750816 3.287431,0.84968604 4.3076717,0.36279009 5.2619691,0.15922425 5.8409034,0.03572894 6.7042161,-0.01686464 7.264024,0.03725776 c 1.56893,0.15168462 2.989354,0.81680086 4.093052,1.91657874 1.285509,1.2809438 1.992025,3.0040718 1.951493,4.7595114 -0.01422,0.615809 -0.113964,1.1300869 -0.377716,1.9474836 -0.333364,1.0331313 -0.802841,2.1267835 -1.578078,3.6761485 -0.980484,1.959566 -2.3414812,4.332127 -3.7719685,6.575493 -0.6528849,1.023888 -0.6348287,0.999558 -0.780323,1.051448 -0.098392,0.03509 -0.1655965,0.03596 -0.2674462,0.0034 z M 7.1685249,9.5460643 C 7.8139573,9.4402676 8.4638938,9.0712376 8.8800428,8.5742753 9.2248212,8.1625431 9.4243708,7.7587748 9.5322669,7.2545661 9.5963492,6.9551028 9.6019356,6.3984943 9.543601,6.125279 9.4113102,5.5056823 9.1540557,5.0234319 8.7308818,4.6017505 8.3094404,4.1817956 7.8348728,3.9252298 7.2472553,3.799656 6.9532481,3.7368267 6.4174279,3.7311707 6.133122,3.7878952 4.7212398,4.0695934 3.7482428,5.2452066 3.7480907,6.6695842 3.7480032,7.4713044 4.0327159,8.1569849 4.6033032,8.7292267 5.2880719,9.4159807 6.196801,9.7053453 7.1685249,9.5460643 Z"
     id="path3783"
     inkscape:connector-curvature="0" />
  <path
     style="fill:#858585;fill-opacity:0;stroke-width:0.02188184"
     d="M 6.5531612,19.975833 C 6.3971724,19.925467 6.371098,19.890179 5.6623579,18.770241 2.7916649,14.234023 0.78892128,10.276803 0.21172271,8.0003344 0.05556168,7.3844359 0.02508679,7.1593403 0.0241511,6.6148796 0.02324751,6.0891018 0.04662824,5.843214 0.14388498,5.3556768 0.26073334,4.7699289 0.42640573,4.2865219 0.70244045,3.7258963 0.98293107,3.1562208 1.3414634,2.6322322 1.7575944,2.1838074 2.9170601,0.93436177 4.3758776,0.20551066 6.0486181,0.03993599 6.3775535,0.00737662 7.0454446,0.01282021 7.38574,0.05083408 c 1.5119652,0.16889929 2.909945,0.84065553 3.983381,1.91409112 1.031105,1.0311057 1.673989,2.3235057 1.893982,3.8075037 0.05438,0.3668326 0.06575,1.0954567 0.02202,1.4113785 -0.166202,1.2007256 -0.75359,2.7818685 -1.861546,5.0109406 -0.938508,1.888166 -2.070989,3.886074 -3.4915417,6.159738 -0.7018274,1.123309 -0.9492781,1.493969 -1.0407821,1.559006 -0.091391,0.06496 -0.2432604,0.09296 -0.338091,0.06234 z M 7.1786848,9.5439221 C 7.747154,9.4497468 8.3040702,9.1587661 8.7288568,8.7339794 9.8766638,7.5861724 9.8785459,5.7464223 8.7330848,4.6009611 8.3237391,4.1916153 7.8262336,3.922916 7.2494435,3.799656 6.9544899,3.7366245 6.4197198,3.7311615 6.1333916,3.7882547 5.0858225,3.9971381 4.257591,4.7061915 3.9099903,5.6917197 3.7952921,6.016916 3.7491986,6.288951 3.7480091,6.6477024 c -0.00204,0.6160794 0.1526057,1.1373147 0.4901644,1.6520788 0.1435761,0.2189481 0.5668448,0.6450939 0.7802306,0.7855339 0.6596628,0.4341575 1.3820998,0.5875241 2.1602807,0.458607 z"
     id="path4590"
     inkscape:connector-curvature="0" />
  <path
     style="fill:#858585;fill-opacity:0;stroke-width:0.02188184"
     d="M 6.5531612,19.975833 C 6.3971724,19.925467 6.371098,19.890179 5.6623579,18.770241 2.7916649,14.234023 0.78892128,10.276803 0.21172271,8.0003344 0.05556168,7.3844359 0.02508679,7.1593403 0.0241511,6.6148796 0.02324751,6.0891018 0.04662824,5.843214 0.14388498,5.3556768 0.26073334,4.7699289 0.42640573,4.2865219 0.70244045,3.7258963 0.98293107,3.1562208 1.3414634,2.6322322 1.7575944,2.1838074 2.9170601,0.93436177 4.3758776,0.20551066 6.0486181,0.03993599 6.3775535,0.00737662 7.0454446,0.01282021 7.38574,0.05083408 c 1.5119652,0.16889929 2.909945,0.84065553 3.983381,1.91409112 1.031105,1.0311057 1.673989,2.3235057 1.893982,3.8075037 0.05438,0.3668326 0.06575,1.0954567 0.02202,1.4113785 -0.166202,1.2007256 -0.75359,2.7818685 -1.861546,5.0109406 -0.938508,1.888166 -2.070989,3.886074 -3.4915417,6.159738 -0.7018274,1.123309 -0.9492781,1.493969 -1.0407821,1.559006 -0.091391,0.06496 -0.2432604,0.09296 -0.338091,0.06234 z M 7.1786848,9.5439221 C 7.747154,9.4497468 8.3040702,9.1587661 8.7288568,8.7339794 9.8766638,7.5861724 9.8785459,5.7464223 8.7330848,4.6009611 8.3237391,4.1916153 7.8262336,3.922916 7.2494435,3.799656 6.9544899,3.7366245 6.4197198,3.7311615 6.1333916,3.7882547 5.0858225,3.9971381 4.257591,4.7061915 3.9099903,5.6917197 3.7952921,6.016916 3.7491986,6.288951 3.7480091,6.6477024 c -0.00204,0.6160794 0.1526057,1.1373147 0.4901644,1.6520788 0.1435761,0.2189481 0.5668448,0.6450939 0.7802306,0.7855339 0.6596628,0.4341575 1.3820998,0.5875241 2.1602807,0.458607 z"
     id="path4592"
     inkscape:connector-curvature="0" />
  <path
     style="fill:#858585;fill-opacity:0;stroke-width:0.02188184"
     d="M 6.5531612,19.975833 C 6.3971724,19.925467 6.371098,19.890179 5.6623579,18.770241 2.7916649,14.234023 0.78892128,10.276803 0.21172271,8.0003344 0.05556168,7.3844359 0.02508679,7.1593403 0.0241511,6.6148796 0.02324751,6.0891018 0.04662824,5.843214 0.14388498,5.3556768 0.26073334,4.7699289 0.42640573,4.2865219 0.70244045,3.7258963 0.98293107,3.1562208 1.3414634,2.6322322 1.7575944,2.1838074 2.9170601,0.93436177 4.3758776,0.20551066 6.0486181,0.03993599 6.3775535,0.00737662 7.0454446,0.01282021 7.38574,0.05083408 c 1.5119652,0.16889929 2.909945,0.84065553 3.983381,1.91409112 1.031105,1.0311057 1.673989,2.3235057 1.893982,3.8075037 0.05438,0.3668326 0.06575,1.0954567 0.02202,1.4113785 -0.166202,1.2007256 -0.75359,2.7818685 -1.861546,5.0109406 -0.938508,1.888166 -2.070989,3.886074 -3.4915417,6.159738 -0.7018274,1.123309 -0.9492781,1.493969 -1.0407821,1.559006 -0.091391,0.06496 -0.2432604,0.09296 -0.338091,0.06234 z M 7.1786848,9.5439221 C 7.747154,9.4497468 8.3040702,9.1587661 8.7288568,8.7339794 9.8766638,7.5861724 9.8785459,5.7464223 8.7330848,4.6009611 8.3237391,4.1916153 7.8262336,3.922916 7.2494435,3.799656 6.9544899,3.7366245 6.4197198,3.7311615 6.1333916,3.7882547 5.0858225,3.9971381 4.257591,4.7061915 3.9099903,5.6917197 3.7952921,6.016916 3.7491986,6.288951 3.7480091,6.6477024 c -0.00204,0.6160794 0.1526057,1.1373147 0.4901644,1.6520788 0.1435761,0.2189481 0.5668448,0.6450939 0.7802306,0.7855339 0.6596628,0.4341575 1.3820998,0.5875241 2.1602807,0.458607 z"
     id="path4594"
     inkscape:connector-curvature="0" />
  <path
     style="fill:#858585;fill-opacity:0;stroke-width:0.02188184"
     d="M 6.5531612,19.975833 C 6.3971724,19.925467 6.371098,19.890179 5.6623579,18.770241 2.7916649,14.234023 0.78892128,10.276803 0.21172271,8.0003344 0.05556168,7.3844359 0.02508679,7.1593403 0.0241511,6.6148796 0.02324751,6.0891018 0.04662824,5.843214 0.14388498,5.3556768 0.26073334,4.7699289 0.42640573,4.2865219 0.70244045,3.7258963 0.98293107,3.1562208 1.3414634,2.6322322 1.7575944,2.1838074 2.9170601,0.93436177 4.3758776,0.20551066 6.0486181,0.03993599 6.3775535,0.00737662 7.0454446,0.01282021 7.38574,0.05083408 c 1.5119652,0.16889929 2.909945,0.84065553 3.983381,1.91409112 1.031105,1.0311057 1.673989,2.3235057 1.893982,3.8075037 0.05438,0.3668326 0.06575,1.0954567 0.02202,1.4113785 -0.166202,1.2007256 -0.75359,2.7818685 -1.861546,5.0109406 -0.938508,1.888166 -2.070989,3.886074 -3.4915417,6.159738 -0.7018274,1.123309 -0.9492781,1.493969 -1.0407821,1.559006 -0.091391,0.06496 -0.2432604,0.09296 -0.338091,0.06234 z M 7.1786848,9.5439221 C 7.747154,9.4497468 8.3040702,9.1587661 8.7288568,8.7339794 9.8766638,7.5861724 9.8785459,5.7464223 8.7330848,4.6009611 8.3237391,4.1916153 7.8262336,3.922916 7.2494435,3.799656 6.9544899,3.7366245 6.4197198,3.7311615 6.1333916,3.7882547 5.0858225,3.9971381 4.257591,4.7061915 3.9099903,5.6917197 3.7952921,6.016916 3.7491986,6.288951 3.7480091,6.6477024 c -0.00204,0.6160794 0.1526057,1.1373147 0.4901644,1.6520788 0.1435761,0.2189481 0.5668448,0.6450939 0.7802306,0.7855339 0.6596628,0.4341575 1.3820998,0.5875241 2.1602807,0.458607 z"
     id="path4596"
     inkscape:connector-curvature="0" />
  <path
     style="fill:#858585;fill-opacity:0;stroke-width:0.02188184"
     d="M 6.5531612,19.975833 C 6.3971724,19.925467 6.371098,19.890179 5.6623579,18.770241 2.7916649,14.234023 0.78892128,10.276803 0.21172271,8.0003344 0.05556168,7.3844359 0.02508679,7.1593403 0.0241511,6.6148796 0.02324751,6.0891018 0.04662824,5.843214 0.14388498,5.3556768 0.26073334,4.7699289 0.42640573,4.2865219 0.70244045,3.7258963 0.98293107,3.1562208 1.3414634,2.6322322 1.7575944,2.1838074 2.9170601,0.93436177 4.3758776,0.20551066 6.0486181,0.03993599 6.3775535,0.00737662 7.0454446,0.01282021 7.38574,0.05083408 c 1.5119652,0.16889929 2.909945,0.84065553 3.983381,1.91409112 1.031105,1.0311057 1.673989,2.3235057 1.893982,3.8075037 0.05438,0.3668326 0.06575,1.0954567 0.02202,1.4113785 -0.166202,1.2007256 -0.75359,2.7818685 -1.861546,5.0109406 -0.938508,1.888166 -2.070989,3.886074 -3.4915417,6.159738 -0.7018274,1.123309 -0.9492781,1.493969 -1.0407821,1.559006 -0.091391,0.06496 -0.2432604,0.09296 -0.338091,0.06234 z M 7.1786848,9.5439221 C 7.747154,9.4497468 8.3040702,9.1587661 8.7288568,8.7339794 9.8766638,7.5861724 9.8785459,5.7464223 8.7330848,4.6009611 8.3237391,4.1916153 7.8262336,3.922916 7.2494435,3.799656 6.9544899,3.7366245 6.4197198,3.7311615 6.1333916,3.7882547 5.0858225,3.9971381 4.257591,4.7061915 3.9099903,5.6917197 3.7952921,6.016916 3.7491986,6.288951 3.7480091,6.6477024 c -0.00204,0.6160794 0.1526057,1.1373147 0.4901644,1.6520788 0.1435761,0.2189481 0.5668448,0.6450939 0.7802306,0.7855339 0.6596628,0.4341575 1.3820998,0.5875241 2.1602807,0.458607 z"
     id="path4598"
     inkscape:connector-curvature="0" />
  <path
     style="fill:#858585;fill-opacity:0;stroke-width:0.02188184"
     d="M 6.5531612,19.975833 C 6.3971724,19.925467 6.371098,19.890179 5.6623579,18.770241 2.7916649,14.234023 0.78892128,10.276803 0.21172271,8.0003344 0.05556168,7.3844359 0.02508679,7.1593403 0.0241511,6.6148796 0.02324751,6.0891018 0.04662824,5.843214 0.14388498,5.3556768 0.26073334,4.7699289 0.42640573,4.2865219 0.70244045,3.7258963 0.98293107,3.1562208 1.3414634,2.6322322 1.7575944,2.1838074 2.9170601,0.93436177 4.3758776,0.20551066 6.0486181,0.03993599 6.3775535,0.00737662 7.0454446,0.01282021 7.38574,0.05083408 c 1.5119652,0.16889929 2.909945,0.84065553 3.983381,1.91409112 1.031105,1.0311057 1.673989,2.3235057 1.893982,3.8075037 0.05438,0.3668326 0.06575,1.0954567 0.02202,1.4113785 -0.166202,1.2007256 -0.75359,2.7818685 -1.861546,5.0109406 -0.938508,1.888166 -2.070989,3.886074 -3.4915417,6.159738 -0.7018274,1.123309 -0.9492781,1.493969 -1.0407821,1.559006 -0.091391,0.06496 -0.2432604,0.09296 -0.338091,0.06234 z M 7.1786848,9.5439221 C 7.747154,9.4497468 8.3040702,9.1587661 8.7288568,8.7339794 9.8766638,7.5861724 9.8785459,5.7464223 8.7330848,4.6009611 8.3237391,4.1916153 7.8262336,3.922916 7.2494435,3.799656 6.9544899,3.7366245 6.4197198,3.7311615 6.1333916,3.7882547 5.0858225,3.9971381 4.257591,4.7061915 3.9099903,5.6917197 3.7952921,6.016916 3.7491986,6.288951 3.7480091,6.6477024 c -0.00204,0.6160794 0.1526057,1.1373147 0.4901644,1.6520788 0.1435761,0.2189481 0.5668448,0.6450939 0.7802306,0.7855339 0.6596628,0.4341575 1.3820998,0.5875241 2.1602807,0.458607 z"
     id="path4600"
     inkscape:connector-curvature="0" />
  <path
     style="fill:#858585;fill-opacity:0;stroke-width:0.02188184"
     d="M 6.5531612,19.975833 C 6.3971724,19.925467 6.371098,19.890179 5.6623579,18.770241 2.7916649,14.234023 0.78892128,10.276803 0.21172271,8.0003344 0.05556168,7.3844359 0.02508679,7.1593403 0.0241511,6.6148796 0.02324751,6.0891018 0.04662824,5.843214 0.14388498,5.3556768 0.26073334,4.7699289 0.42640573,4.2865219 0.70244045,3.7258963 0.98293107,3.1562208 1.3414634,2.6322322 1.7575944,2.1838074 2.9170601,0.93436177 4.3758776,0.20551066 6.0486181,0.03993599 6.3775535,0.00737662 7.0454446,0.01282021 7.38574,0.05083408 c 1.5119652,0.16889929 2.909945,0.84065553 3.983381,1.91409112 1.031105,1.0311057 1.673989,2.3235057 1.893982,3.8075037 0.05438,0.3668326 0.06575,1.0954567 0.02202,1.4113785 -0.166202,1.2007256 -0.75359,2.7818685 -1.861546,5.0109406 -0.938508,1.888166 -2.070989,3.886074 -3.4915417,6.159738 -0.7018274,1.123309 -0.9492781,1.493969 -1.0407821,1.559006 -0.091391,0.06496 -0.2432604,0.09296 -0.338091,0.06234 z M 7.1786848,9.5439221 C 7.747154,9.4497468 8.3040702,9.1587661 8.7288568,8.7339794 9.8766638,7.5861724 9.8785459,5.7464223 8.7330848,4.6009611 8.3237391,4.1916153 7.8262336,3.922916 7.2494435,3.799656 6.9544899,3.7366245 6.4197198,3.7311615 6.1333916,3.7882547 5.0858225,3.9971381 4.257591,4.7061915 3.9099903,5.6917197 3.7952921,6.016916 3.7491986,6.288951 3.7480091,6.6477024 c -0.00204,0.6160794 0.1526057,1.1373147 0.4901644,1.6520788 0.1435761,0.2189481 0.5668448,0.6450939 0.7802306,0.7855339 0.6596628,0.4341575 1.3820998,0.5875241 2.1602807,0.458607 z"
     id="path4602"
     inkscape:connector-curvature="0" />
  <path
     style="fill:#858585;fill-opacity:0;stroke-width:0.02188184"
     d="M 6.5531612,19.975833 C 6.3971724,19.925467 6.371098,19.890179 5.6623579,18.770241 2.7916649,14.234023 0.78892128,10.276803 0.21172271,8.0003344 0.05556168,7.3844359 0.02508679,7.1593403 0.0241511,6.6148796 0.02324751,6.0891018 0.04662824,5.843214 0.14388498,5.3556768 0.26073334,4.7699289 0.42640573,4.2865219 0.70244045,3.7258963 0.98293107,3.1562208 1.3414634,2.6322322 1.7575944,2.1838074 2.9170601,0.93436177 4.3758776,0.20551066 6.0486181,0.03993599 6.3775535,0.00737662 7.0454446,0.01282021 7.38574,0.05083408 c 1.5119652,0.16889929 2.909945,0.84065553 3.983381,1.91409112 1.031105,1.0311057 1.673989,2.3235057 1.893982,3.8075037 0.05438,0.3668326 0.06575,1.0954567 0.02202,1.4113785 -0.166202,1.2007256 -0.75359,2.7818685 -1.861546,5.0109406 -0.938508,1.888166 -2.070989,3.886074 -3.4915417,6.159738 -0.7018274,1.123309 -0.9492781,1.493969 -1.0407821,1.559006 -0.091391,0.06496 -0.2432604,0.09296 -0.338091,0.06234 z M 7.1786848,9.5439221 C 7.747154,9.4497468 8.3040702,9.1587661 8.7288568,8.7339794 9.8766638,7.5861724 9.8785459,5.7464223 8.7330848,4.6009611 8.3237391,4.1916153 7.8262336,3.922916 7.2494435,3.799656 6.9544899,3.7366245 6.4197198,3.7311615 6.1333916,3.7882547 5.0858225,3.9971381 4.257591,4.7061915 3.9099903,5.6917197 3.7952921,6.016916 3.7491986,6.288951 3.7480091,6.6477024 c -0.00204,0.6160794 0.1526057,1.1373147 0.4901644,1.6520788 0.1435761,0.2189481 0.5668448,0.6450939 0.7802306,0.7855339 0.6596628,0.4341575 1.3820998,0.5875241 2.1602807,0.458607 z"
     id="path4604"
     inkscape:connector-curvature="0" />
  <path
     style="fill:#858585;fill-opacity:0;stroke-width:0.02188184"
     d="M 6.5531612,19.975833 C 6.3971724,19.925467 6.371098,19.890179 5.6623579,18.770241 2.7916649,14.234023 0.78892128,10.276803 0.21172271,8.0003344 0.05556168,7.3844359 0.02508679,7.1593403 0.0241511,6.6148796 0.02324751,6.0891018 0.04662824,5.843214 0.14388498,5.3556768 0.26073334,4.7699289 0.42640573,4.2865219 0.70244045,3.7258963 0.98293107,3.1562208 1.3414634,2.6322322 1.7575944,2.1838074 2.9170601,0.93436177 4.3758776,0.20551066 6.0486181,0.03993599 6.3775535,0.00737662 7.0454446,0.01282021 7.38574,0.05083408 c 1.5119652,0.16889929 2.909945,0.84065553 3.983381,1.91409112 1.031105,1.0311057 1.673989,2.3235057 1.893982,3.8075037 0.05438,0.3668326 0.06575,1.0954567 0.02202,1.4113785 -0.166202,1.2007256 -0.75359,2.7818685 -1.861546,5.0109406 -0.938508,1.888166 -2.070989,3.886074 -3.4915417,6.159738 -0.7018274,1.123309 -0.9492781,1.493969 -1.0407821,1.559006 -0.091391,0.06496 -0.2432604,0.09296 -0.338091,0.06234 z M 7.1786848,9.5439221 C 7.747154,9.4497468 8.3040702,9.1587661 8.7288568,8.7339794 9.8766638,7.5861724 9.8785459,5.7464223 8.7330848,4.6009611 8.3237391,4.1916153 7.8262336,3.922916 7.2494435,3.799656 6.9544899,3.7366245 6.4197198,3.7311615 6.1333916,3.7882547 5.0858225,3.9971381 4.257591,4.7061915 3.9099903,5.6917197 3.7952921,6.016916 3.7491986,6.288951 3.7480091,6.6477024 c -0.00204,0.6160794 0.1526057,1.1373147 0.4901644,1.6520788 0.1435761,0.2189481 0.5668448,0.6450939 0.7802306,0.7855339 0.6596628,0.4341575 1.3820998,0.5875241 2.1602807,0.458607 z"
     id="path4625"
     inkscape:connector-curvature="0" />
  <path
     style="fill:#858585;fill-opacity:0.00392157;stroke-width:0.02188184"
     d="M 6.5531612,19.975833 C 6.3971724,19.925467 6.371098,19.890179 5.6623579,18.770241 2.7916649,14.234023 0.78892128,10.276803 0.21172271,8.0003344 0.05556168,7.3844359 0.02508679,7.1593403 0.0241511,6.6148796 0.02324751,6.0891018 0.04662824,5.843214 0.14388498,5.3556768 0.26073334,4.7699289 0.42640573,4.2865219 0.70244045,3.7258963 0.98293107,3.1562208 1.3414634,2.6322322 1.7575944,2.1838074 2.9170601,0.93436177 4.3758776,0.20551066 6.0486181,0.03993599 6.3775535,0.00737662 7.0454446,0.01282021 7.38574,0.05083408 c 1.5119652,0.16889929 2.909945,0.84065553 3.983381,1.91409112 1.031105,1.0311057 1.673989,2.3235057 1.893982,3.8075037 0.05438,0.3668326 0.06575,1.0954567 0.02202,1.4113785 -0.166202,1.2007256 -0.75359,2.7818685 -1.861546,5.0109406 -0.938508,1.888166 -2.070989,3.886074 -3.4915417,6.159738 -0.7018274,1.123309 -0.9492781,1.493969 -1.0407821,1.559006 -0.091391,0.06496 -0.2432604,0.09296 -0.338091,0.06234 z M 7.1786848,9.5439221 C 7.747154,9.4497468 8.3040702,9.1587661 8.7288568,8.7339794 9.8766638,7.5861724 9.8785459,5.7464223 8.7330848,4.6009611 8.3237391,4.1916153 7.8262336,3.922916 7.2494435,3.799656 6.9544899,3.7366245 6.4197198,3.7311615 6.1333916,3.7882547 5.0858225,3.9971381 4.257591,4.7061915 3.9099903,5.6917197 3.7952921,6.016916 3.7491986,6.288951 3.7480091,6.6477024 c -0.00204,0.6160794 0.1526057,1.1373147 0.4901644,1.6520788 0.1435761,0.2189481 0.5668448,0.6450939 0.7802306,0.7855339 0.6596628,0.4341575 1.3820998,0.5875241 2.1602807,0.458607 z"
     id="path4627"
     inkscape:connector-curvature="0" />
  <path
     style="fill:#858585;fill-opacity:0.00392157;stroke-width:0.02188184"
     d="M 6.5531612,19.975833 C 6.3971724,19.925467 6.371098,19.890179 5.6623579,18.770241 2.7916649,14.234023 0.78892128,10.276803 0.21172271,8.0003344 0.05556168,7.3844359 0.02508679,7.1593403 0.0241511,6.6148796 0.02324751,6.0891018 0.04662824,5.843214 0.14388498,5.3556768 0.26073334,4.7699289 0.42640573,4.2865219 0.70244045,3.7258963 0.98293107,3.1562208 1.3414634,2.6322322 1.7575944,2.1838074 2.9170601,0.93436177 4.3758776,0.20551066 6.0486181,0.03993599 6.3775535,0.00737662 7.0454446,0.01282021 7.38574,0.05083408 c 1.5119652,0.16889929 2.909945,0.84065553 3.983381,1.91409112 1.031105,1.0311057 1.673989,2.3235057 1.893982,3.8075037 0.05438,0.3668326 0.06575,1.0954567 0.02202,1.4113785 -0.166202,1.2007256 -0.75359,2.7818685 -1.861546,5.0109406 -0.938508,1.888166 -2.070989,3.886074 -3.4915417,6.159738 -0.7018274,1.123309 -0.9492781,1.493969 -1.0407821,1.559006 -0.091391,0.06496 -0.2432604,0.09296 -0.338091,0.06234 z M 7.1786848,9.5439221 C 7.747154,9.4497468 8.3040702,9.1587661 8.7288568,8.7339794 9.8766638,7.5861724 9.8785459,5.7464223 8.7330848,4.6009611 8.3237391,4.1916153 7.8262336,3.922916 7.2494435,3.799656 6.9544899,3.7366245 6.4197198,3.7311615 6.1333916,3.7882547 5.0858225,3.9971381 4.257591,4.7061915 3.9099903,5.6917197 3.7952921,6.016916 3.7491986,6.288951 3.7480091,6.6477024 c -0.00204,0.6160794 0.1526057,1.1373147 0.4901644,1.6520788 0.1435761,0.2189481 0.5668448,0.6450939 0.7802306,0.7855339 0.6596628,0.4341575 1.3820998,0.5875241 2.1602807,0.458607 z"
     id="path4629"
     inkscape:connector-curvature="0" />
  <path
     style="fill:#858585;fill-opacity:0.00392157;stroke-width:0.02188184"
     d="M 6.5531612,19.975833 C 6.3971724,19.925467 6.371098,19.890179 5.6623579,18.770241 2.7916649,14.234023 0.78892128,10.276803 0.21172271,8.0003344 0.05556168,7.3844359 0.02508679,7.1593403 0.0241511,6.6148796 0.02324751,6.0891018 0.04662824,5.843214 0.14388498,5.3556768 0.26073334,4.7699289 0.42640573,4.2865219 0.70244045,3.7258963 0.98293107,3.1562208 1.3414634,2.6322322 1.7575944,2.1838074 2.9170601,0.93436177 4.3758776,0.20551066 6.0486181,0.03993599 6.3775535,0.00737662 7.0454446,0.01282021 7.38574,0.05083408 c 1.5119652,0.16889929 2.909945,0.84065553 3.983381,1.91409112 1.031105,1.0311057 1.673989,2.3235057 1.893982,3.8075037 0.05438,0.3668326 0.06575,1.0954567 0.02202,1.4113785 -0.166202,1.2007256 -0.75359,2.7818685 -1.861546,5.0109406 -0.938508,1.888166 -2.070989,3.886074 -3.4915417,6.159738 -0.7018274,1.123309 -0.9492781,1.493969 -1.0407821,1.559006 -0.091391,0.06496 -0.2432604,0.09296 -0.338091,0.06234 z M 7.1786848,9.5439221 C 7.747154,9.4497468 8.3040702,9.1587661 8.7288568,8.7339794 9.8766638,7.5861724 9.8785459,5.7464223 8.7330848,4.6009611 8.3237391,4.1916153 7.8262336,3.922916 7.2494435,3.799656 6.9544899,3.7366245 6.4197198,3.7311615 6.1333916,3.7882547 5.0858225,3.9971381 4.257591,4.7061915 3.9099903,5.6917197 3.7952921,6.016916 3.7491986,6.288951 3.7480091,6.6477024 c -0.00204,0.6160794 0.1526057,1.1373147 0.4901644,1.6520788 0.1435761,0.2189481 0.5668448,0.6450939 0.7802306,0.7855339 0.6596628,0.4341575 1.3820998,0.5875241 2.1602807,0.458607 z"
     id="path4631"
     inkscape:connector-curvature="0" />
  <path
     style="fill:#858585;fill-opacity:0.00392157;stroke-width:0.02188184"
     d="M 6.5531612,19.975833 C 6.3971724,19.925467 6.371098,19.890179 5.6623579,18.770241 2.7916649,14.234023 0.78892128,10.276803 0.21172271,8.0003344 0.05556168,7.3844359 0.02508679,7.1593403 0.0241511,6.6148796 0.02324751,6.0891018 0.04662824,5.843214 0.14388498,5.3556768 0.26073334,4.7699289 0.42640573,4.2865219 0.70244045,3.7258963 0.98293107,3.1562208 1.3414634,2.6322322 1.7575944,2.1838074 2.9170601,0.93436177 4.3758776,0.20551066 6.0486181,0.03993599 6.3775535,0.00737662 7.0454446,0.01282021 7.38574,0.05083408 c 1.5119652,0.16889929 2.909945,0.84065553 3.983381,1.91409112 1.031105,1.0311057 1.673989,2.3235057 1.893982,3.8075037 0.05438,0.3668326 0.06575,1.0954567 0.02202,1.4113785 -0.166202,1.2007256 -0.75359,2.7818685 -1.861546,5.0109406 -0.938508,1.888166 -2.070989,3.886074 -3.4915417,6.159738 -0.7018274,1.123309 -0.9492781,1.493969 -1.0407821,1.559006 -0.091391,0.06496 -0.2432604,0.09296 -0.338091,0.06234 z M 7.1786848,9.5439221 C 7.747154,9.4497468 8.3040702,9.1587661 8.7288568,8.7339794 9.8766638,7.5861724 9.8785459,5.7464223 8.7330848,4.6009611 8.3237391,4.1916153 7.8262336,3.922916 7.2494435,3.799656 6.9544899,3.7366245 6.4197198,3.7311615 6.1333916,3.7882547 5.0858225,3.9971381 4.257591,4.7061915 3.9099903,5.6917197 3.7952921,6.016916 3.7491986,6.288951 3.7480091,6.6477024 c -0.00204,0.6160794 0.1526057,1.1373147 0.4901644,1.6520788 0.1435761,0.2189481 0.5668448,0.6450939 0.7802306,0.7855339 0.6596628,0.4341575 1.3820998,0.5875241 2.1602807,0.458607 z"
     id="path4633"
     inkscape:connector-curvature="0" />
  <path
     style="fill:#858585;fill-opacity:0.00392157;stroke-width:0.02188184"
     d="M 6.5531612,19.975833 C 6.3971724,19.925467 6.371098,19.890179 5.6623579,18.770241 2.7916649,14.234023 0.78892128,10.276803 0.21172271,8.0003344 0.05556168,7.3844359 0.02508679,7.1593403 0.0241511,6.6148796 0.02324751,6.0891018 0.04662824,5.843214 0.14388498,5.3556768 0.26073334,4.7699289 0.42640573,4.2865219 0.70244045,3.7258963 0.98293107,3.1562208 1.3414634,2.6322322 1.7575944,2.1838074 2.9170601,0.93436177 4.3758776,0.20551066 6.0486181,0.03993599 6.3775535,0.00737662 7.0454446,0.01282021 7.38574,0.05083408 c 1.5119652,0.16889929 2.909945,0.84065553 3.983381,1.91409112 1.031105,1.0311057 1.673989,2.3235057 1.893982,3.8075037 0.05438,0.3668326 0.06575,1.0954567 0.02202,1.4113785 -0.166202,1.2007256 -0.75359,2.7818685 -1.861546,5.0109406 -0.938508,1.888166 -2.070989,3.886074 -3.4915417,6.159738 -0.7018274,1.123309 -0.9492781,1.493969 -1.0407821,1.559006 -0.091391,0.06496 -0.2432604,0.09296 -0.338091,0.06234 z M 7.1786848,9.5439221 C 7.747154,9.4497468 8.3040702,9.1587661 8.7288568,8.7339794 9.8766638,7.5861724 9.8785459,5.7464223 8.7330848,4.6009611 8.3237391,4.1916153 7.8262336,3.922916 7.2494435,3.799656 6.9544899,3.7366245 6.4197198,3.7311615 6.1333916,3.7882547 5.0858225,3.9971381 4.257591,4.7061915 3.9099903,5.6917197 3.7952921,6.016916 3.7491986,6.288951 3.7480091,6.6477024 c -0.00204,0.6160794 0.1526057,1.1373147 0.4901644,1.6520788 0.1435761,0.2189481 0.5668448,0.6450939 0.7802306,0.7855339 0.6596628,0.4341575 1.3820998,0.5875241 2.1602807,0.458607 z"
     id="path4635"
     inkscape:connector-curvature="0" />
</svg>
