<svg xmlns="http://www.w3.org/2000/svg" viewBox="0 0 19.2 16"><defs><style>.cls-1{fill:#858585;}</style></defs><title>morealtiРесурс 15</title><g id="Слой_2" data-name="Слой 2"><g id="Слой_1-2" data-name="Слой 1"><path class="cls-1" d="M2.4559,0H.7441A.7441.7441,0,0,0,0,.7441V2.4559A.7441.7441,0,0,0,.7441,3.2H2.4559A.7441.7441,0,0,0,3.2,2.4559V.7441A.7441.7441,0,0,0,2.4559,0Z"/><path class="cls-1" d="M2.4559,6.4H.7441A.7441.7441,0,0,0,0,7.1441V8.8559A.7441.7441,0,0,0,.7441,9.6H2.4559A.7441.7441,0,0,0,3.2,8.8559V7.1441A.7441.7441,0,0,0,2.4559,6.4Z"/><path class="cls-1" d="M2.4559,12.8H.7441A.7441.7441,0,0,0,0,13.5441v1.7118A.7441.7441,0,0,0,.7441,16H2.4559A.7441.7441,0,0,0,3.2,15.2559V13.5441A.7441.7441,0,0,0,2.4559,12.8Z"/><path class="cls-1" d="M18.4559,0H7.1441A.7441.7441,0,0,0,6.4.7441V2.4559A.7441.7441,0,0,0,7.1441,3.2H18.4559A.7441.7441,0,0,0,19.2,2.4559V.7441A.7441.7441,0,0,0,18.4559,0Z"/><path class="cls-1" d="M18.4559,6.4H7.1441A.7441.7441,0,0,0,6.4,7.1441V8.8559A.7441.7441,0,0,0,7.1441,9.6H18.4559A.7441.7441,0,0,0,19.2,8.8559V7.1441A.7441.7441,0,0,0,18.4559,6.4Z"/><path class="cls-1" d="M18.4559,12.8H7.1441a.7441.7441,0,0,0-.7441.7441v1.7118A.7441.7441,0,0,0,7.1441,16H18.4559a.7441.7441,0,0,0,.7441-.7441V13.5441A.7441.7441,0,0,0,18.4559,12.8Z"/></g></g></svg>