<?xml version="1.0" encoding="UTF-8" standalone="no"?>
<svg
   xmlns:dc="http://purl.org/dc/elements/1.1/"
   xmlns:cc="http://creativecommons.org/ns#"
   xmlns:rdf="http://www.w3.org/1999/02/22-rdf-syntax-ns#"
   xmlns:svg="http://www.w3.org/2000/svg"
   xmlns="http://www.w3.org/2000/svg"
   xmlns:sodipodi="http://sodipodi.sourceforge.net/DTD/sodipodi-0.dtd"
   xmlns:inkscape="http://www.inkscape.org/namespaces/inkscape"
   viewBox="0 0 13.3333 20"
   version="1.1"
   id="svg3777"
   sodipodi:docname="ico-view-bb.svg"
   inkscape:version="0.92.3 (unknown)">
  <metadata
     id="metadata3781">
    <rdf:RDF>
      <cc:Work
         rdf:about="">
        <dc:format>image/svg+xml</dc:format>
        <dc:type
           rdf:resource="http://purl.org/dc/dcmitype/StillImage" />
      </cc:Work>
    </rdf:RDF>
  </metadata>
  <sodipodi:namedview
     pagecolor="#ffffff"
     bordercolor="#666666"
     borderopacity="1"
     objecttolerance="10"
     gridtolerance="10"
     guidetolerance="10"
     inkscape:pageopacity="0"
     inkscape:pageshadow="2"
     inkscape:window-width="1855"
     inkscape:window-height="1056"
     id="namedview3779"
     showgrid="false"
     inkscape:zoom="45.7"
     inkscape:cx="-0.48871123"
     inkscape:cy="10"
     inkscape:window-x="65"
     inkscape:window-y="24"
     inkscape:window-maximized="1"
     inkscape:current-layer="svg3777" />
  <defs
     id="defs3769">
    <style
       id="style3767">.cls-1{fill:#3c3c3b;}</style>
  </defs>
  <title
     id="title3771">morealtiРесурс 13</title>
  <g
     id="Слой_2"
     data-name="Слой 2">
    <g
       id="Слой_2-2"
       data-name="Слой 2">
      <path
         class="cls-1"
         d="M6.6667,0A6.6739,6.6739,0,0,0,0,6.6667c0,3.5367,6.06,12.7558,6.3192,13.1458a.4158.4158,0,0,0,.695,0c.2583-.39,6.3192-9.6092,6.3192-13.1458A6.6739,6.6739,0,0,0,6.6667,0Zm0,9.5833A2.9167,2.9167,0,1,1,9.5833,6.6667,2.92,2.92,0,0,1,6.6667,9.5833Z"
         id="path3773" />
    </g>
  </g>
  <path
     style="fill:#858585;fill-opacity:0;stroke-width:0.02188184"
     d="M 6.5330373,19.967363 C 6.4192233,19.93103 6.3477829,19.84319 6.0290664,19.347708 3.3077925,15.117166 1.1741938,11.067305 0.40463601,8.6717724 0.00969253,7.442365 -0.06990167,6.6350847 0.10043549,5.5864333 0.27923474,4.4856862 0.75128082,3.4206545 1.4533797,2.5339168 1.6679746,2.2628875 2.2408934,1.6858869 2.5047242,1.4750816 3.287431,0.84968604 4.3076717,0.36279009 5.2619691,0.15922425 5.8409034,0.03572894 6.7042161,-0.01686464 7.264024,0.03725776 c 1.56893,0.15168462 2.989354,0.81680086 4.093052,1.91657874 1.285509,1.2809438 1.992025,3.0040718 1.951493,4.7595114 -0.01422,0.615809 -0.113964,1.1300869 -0.377716,1.9474836 -0.333364,1.0331313 -0.802841,2.1267835 -1.578078,3.6761485 -0.980484,1.959566 -2.3414812,4.332127 -3.7719685,6.575493 -0.6528849,1.023888 -0.6348287,0.999558 -0.780323,1.051448 -0.098392,0.03509 -0.1655965,0.03596 -0.2674462,0.0034 z M 7.1685249,9.5460643 C 7.8139573,9.4402676 8.4638938,9.0712376 8.8800428,8.5742753 9.2248212,8.1625431 9.4243708,7.7587748 9.5322669,7.2545661 9.5963492,6.9551028 9.6019356,6.3984943 9.543601,6.125279 9.4113102,5.5056823 9.1540557,5.0234319 8.7308818,4.6017505 8.3094404,4.1817956 7.8348728,3.9252298 7.2472553,3.799656 6.9532481,3.7368267 6.4174279,3.7311707 6.133122,3.7878952 4.7212398,4.0695934 3.7482428,5.2452066 3.7480907,6.6695842 3.7480032,7.4713044 4.0327159,8.1569849 4.6033032,8.7292267 5.2880719,9.4159807 6.196801,9.7053453 7.1685249,9.5460643 Z"
     id="path3783"
     inkscape:connector-curvature="0" />
  <path
     style="fill:#eeffaa;fill-opacity:0.00392157;fill-rule:nonzero;stroke-width:0.02188184"
     d="m 6.5371925,19.963921 c -0.045928,-0.01638 -0.104146,-0.04795 -0.1293731,-0.07016 -0.1127683,-0.09926 -1.2267448,-1.865705 -2.088654,-3.312 C 2.120864,12.892984 0.64422654,9.7931744 0.18628245,7.9058696 -0.00693478,7.109572 -0.03504616,6.4669088 0.0881717,5.6629287 0.40166641,3.6174175 1.6415435,1.8460626 3.4697133,0.83187696 4.1394019,0.46036414 4.957019,0.18861946 5.7673063,0.06824482 6.1419225,0.01259261 7.1867794,0.01257363 7.561617,0.06821223 8.7883708,0.25030405 9.8746553,0.71890722 10.832952,1.479406 c 0.275986,0.2190207 0.801926,0.7468791 1.028877,1.032629 0.404588,0.5094096 0.828743,1.2532029 1.035701,1.8161926 0.322021,0.8759938 0.480237,1.898558 0.409667,2.6477024 -0.158388,1.6813827 -1.353805,4.48608 -3.5533828,8.33698 -0.9767814,1.710095 -2.650246,4.415379 -2.8276893,4.571176 -0.069374,0.06091 -0.1964497,0.1124 -0.2726042,0.110455 -0.018052,-4.62e-4 -0.0704,-0.01424 -0.1163282,-0.03062 z M 6.9051619,9.5790481 C 7.1758387,9.5535595 7.4724796,9.4896074 7.6771811,9.4126103 8.8323242,8.9781116 9.585687,7.8957214 9.585687,6.670574 9.585687,5.8895442 9.3034511,5.1920039 8.761203,4.6328777 8.333405,4.1917639 7.8340382,3.9216232 7.2005667,3.7886249 6.9459748,3.7351731 6.4110875,3.7354687 6.1400914,3.7892114 4.9379658,4.0276096 4.0501577,4.9023464 3.7941061,6.1006565 3.7380306,6.3630873 3.738622,6.9778457 3.7952002,7.237626 3.9202938,7.812 4.1840818,8.3099554 4.5719861,8.7039729 c 0.5442869,0.5528647 1.22523,0.8518882 2.0377709,0.8948488 0.030088,0.00159 0.1630197,-0.00731 0.2954049,-0.019774 z"
     id="path817"
     inkscape:connector-curvature="0" />
  <path
     style="fill:#353535;fill-opacity:0.00392157;fill-rule:nonzero;stroke-width:0.02188184"
     d="M 6.5371925,19.963921 C 6.4912647,19.947541 6.4330277,19.915971 6.4077774,19.893765 6.2937017,19.793446 5.1924023,18.047068 4.3191654,16.581765 2.1203793,12.892171 0.64069626,9.7861101 0.18609311,7.9058696 -0.00874234,7.1000295 -0.03561112,6.4713026 0.08977686,5.6520788 0.40083219,3.6197954 1.6500946,1.8380537 3.4697133,0.83149549 4.142445,0.45936063 4.9577984,0.18850365 5.7673063,0.06824482 6.1419225,0.01259261 7.1867794,0.01257363 7.561617,0.06821223 c 1.2267271,0.18208786 2.3127092,0.65054991 3.271335,1.41116167 0.255423,0.2026627 0.814683,0.7594596 1.01525,1.0107793 0.524679,0.6574459 0.953554,1.4772702 1.20194,2.297593 0.206909,0.6833405 0.31341,1.5899378 0.257055,2.1881838 -0.158432,1.6818455 -1.351489,4.481098 -3.5532673,8.33698 -0.974812,1.707148 -2.6499392,4.415008 -2.8278048,4.571176 -0.069374,0.06091 -0.1964497,0.1124 -0.2726042,0.110455 -0.018052,-4.62e-4 -0.0704,-0.01424 -0.1163282,-0.03062 z M 6.9051619,9.5790481 C 7.1758387,9.5535595 7.4724796,9.4896074 7.6771811,9.4126103 8.8323242,8.9781116 9.585687,7.8957214 9.585687,6.670574 9.585687,5.8895442 9.3034511,5.1920039 8.761203,4.6328777 8.333405,4.1917639 7.8340382,3.9216232 7.2005667,3.7886249 6.9459748,3.7351731 6.4110875,3.7354687 6.1400914,3.7892114 4.9379658,4.0276096 4.0501577,4.9023464 3.7941061,6.1006565 3.7380306,6.3630873 3.738622,6.9778457 3.7952002,7.237626 3.9202938,7.812 4.1840818,8.3099554 4.5719861,8.7039729 c 0.5442869,0.5528647 1.22523,0.8518882 2.0377709,0.8948488 0.030088,0.00159 0.1630197,-0.00731 0.2954049,-0.019774 z"
     id="path819"
     inkscape:connector-curvature="0" />
  <path
     style="fill:#353535;fill-opacity:0.00392157;fill-rule:nonzero;stroke-width:0.02188184"
     d="M 6.5371925,19.963921 C 6.4912647,19.947541 6.4330277,19.915971 6.4077774,19.893765 6.2937017,19.793446 5.1924023,18.047068 4.3191654,16.581765 2.1203793,12.892171 0.64069626,9.7861101 0.18609311,7.9058696 -0.00874234,7.1000295 -0.03561112,6.4713026 0.08977686,5.6520788 0.40083219,3.6197954 1.6500946,1.8380537 3.4697133,0.83149549 4.142445,0.45936063 4.9577984,0.18850365 5.7673063,0.06824482 6.1419225,0.01259261 7.1867794,0.01257363 7.561617,0.06821223 c 1.2267271,0.18208786 2.3127092,0.65054991 3.271335,1.41116167 0.255423,0.2026627 0.814683,0.7594596 1.01525,1.0107793 0.524679,0.6574459 0.953554,1.4772702 1.20194,2.297593 0.206909,0.6833405 0.31341,1.5899378 0.257055,2.1881838 -0.158432,1.6818455 -1.351489,4.481098 -3.5532673,8.33698 -0.974812,1.707148 -2.6499392,4.415008 -2.8278048,4.571176 -0.069374,0.06091 -0.1964497,0.1124 -0.2726042,0.110455 -0.018052,-4.62e-4 -0.0704,-0.01424 -0.1163282,-0.03062 z M 6.9051619,9.5790481 C 7.1758387,9.5535595 7.4724796,9.4896074 7.6771811,9.4126103 8.8323242,8.9781116 9.585687,7.8957214 9.585687,6.670574 9.585687,5.8895442 9.3034511,5.1920039 8.761203,4.6328777 8.333405,4.1917639 7.8340382,3.9216232 7.2005667,3.7886249 6.9459748,3.7351731 6.4110875,3.7354687 6.1400914,3.7892114 4.9379658,4.0276096 4.0501577,4.9023464 3.7941061,6.1006565 3.7380306,6.3630873 3.738622,6.9778457 3.7952002,7.237626 3.9202938,7.812 4.1840818,8.3099554 4.5719861,8.7039729 c 0.5442869,0.5528647 1.22523,0.8518882 2.0377709,0.8948488 0.030088,0.00159 0.1630197,-0.00731 0.2954049,-0.019774 z"
     id="path821"
     inkscape:connector-curvature="0" />
  <path
     style="fill:#353535;fill-opacity:0.00392157;fill-rule:nonzero;stroke-width:0.02188184"
     d="M 6.5371925,19.963921 C 6.4912647,19.947541 6.4330277,19.915971 6.4077774,19.893765 6.2937017,19.793446 5.1924023,18.047068 4.3191654,16.581765 2.1203793,12.892171 0.64069626,9.7861101 0.18609311,7.9058696 -0.00874234,7.1000295 -0.03561112,6.4713026 0.08977686,5.6520788 0.40083219,3.6197954 1.6500946,1.8380537 3.4697133,0.83149549 4.142445,0.45936063 4.9577984,0.18850365 5.7673063,0.06824482 6.1419225,0.01259261 7.1867794,0.01257363 7.561617,0.06821223 c 1.2267271,0.18208786 2.3127092,0.65054991 3.271335,1.41116167 0.255423,0.2026627 0.814683,0.7594596 1.01525,1.0107793 0.524679,0.6574459 0.953554,1.4772702 1.20194,2.297593 0.206909,0.6833405 0.31341,1.5899378 0.257055,2.1881838 -0.158432,1.6818455 -1.351489,4.481098 -3.5532673,8.33698 -0.974812,1.707148 -2.6499392,4.415008 -2.8278048,4.571176 -0.069374,0.06091 -0.1964497,0.1124 -0.2726042,0.110455 -0.018052,-4.62e-4 -0.0704,-0.01424 -0.1163282,-0.03062 z M 6.9051619,9.5790481 C 7.1758387,9.5535595 7.4724796,9.4896074 7.6771811,9.4126103 8.8323242,8.9781116 9.585687,7.8957214 9.585687,6.670574 9.585687,5.8895442 9.3034511,5.1920039 8.761203,4.6328777 8.333405,4.1917639 7.8340382,3.9216232 7.2005667,3.7886249 6.9459748,3.7351731 6.4110875,3.7354687 6.1400914,3.7892114 4.9379658,4.0276096 4.0501577,4.9023464 3.7941061,6.1006565 3.7380306,6.3630873 3.738622,6.9778457 3.7952002,7.237626 3.9202938,7.812 4.1840818,8.3099554 4.5719861,8.7039729 c 0.5442869,0.5528647 1.22523,0.8518882 2.0377709,0.8948488 0.030088,0.00159 0.1630197,-0.00731 0.2954049,-0.019774 z"
     id="path823"
     inkscape:connector-curvature="0" />
  <path
     style="fill:#353535;fill-opacity:0.00392157;fill-rule:nonzero;stroke-width:0.02188184"
     d="M 6.5371925,19.963921 C 6.4912647,19.947541 6.4330277,19.915971 6.4077774,19.893765 6.2937017,19.793446 5.1924023,18.047068 4.3191654,16.581765 2.1203793,12.892171 0.64069626,9.7861101 0.18609311,7.9058696 -0.00874234,7.1000295 -0.03561112,6.4713026 0.08977686,5.6520788 0.40083219,3.6197954 1.6500946,1.8380537 3.4697133,0.83149549 4.142445,0.45936063 4.9577984,0.18850365 5.7673063,0.06824482 6.1419225,0.01259261 7.1867794,0.01257363 7.561617,0.06821223 c 1.2267271,0.18208786 2.3127092,0.65054991 3.271335,1.41116167 0.255423,0.2026627 0.814683,0.7594596 1.01525,1.0107793 0.524679,0.6574459 0.953554,1.4772702 1.20194,2.297593 0.206909,0.6833405 0.31341,1.5899378 0.257055,2.1881838 -0.158432,1.6818455 -1.351489,4.481098 -3.5532673,8.33698 -0.974812,1.707148 -2.6499392,4.415008 -2.8278048,4.571176 -0.069374,0.06091 -0.1964497,0.1124 -0.2726042,0.110455 -0.018052,-4.62e-4 -0.0704,-0.01424 -0.1163282,-0.03062 z M 6.9051619,9.5790481 C 7.1758387,9.5535595 7.4724796,9.4896074 7.6771811,9.4126103 8.8323242,8.9781116 9.585687,7.8957214 9.585687,6.670574 9.585687,5.8895442 9.3034511,5.1920039 8.761203,4.6328777 8.333405,4.1917639 7.8340382,3.9216232 7.2005667,3.7886249 6.9459748,3.7351731 6.4110875,3.7354687 6.1400914,3.7892114 4.9379658,4.0276096 4.0501577,4.9023464 3.7941061,6.1006565 3.7380306,6.3630873 3.738622,6.9778457 3.7952002,7.237626 3.9202938,7.812 4.1840818,8.3099554 4.5719861,8.7039729 c 0.5442869,0.5528647 1.22523,0.8518882 2.0377709,0.8948488 0.030088,0.00159 0.1630197,-0.00731 0.2954049,-0.019774 z"
     id="path825"
     inkscape:connector-curvature="0" />
  <path
     style="fill:#353535;fill-opacity:0.00392157;fill-rule:nonzero;stroke-width:0.02188184"
     d="M 6.5371925,19.963921 C 6.4912647,19.947541 6.4330277,19.915971 6.4077774,19.893765 6.2937017,19.793446 5.1924023,18.047068 4.3191654,16.581765 2.1203793,12.892171 0.64069626,9.7861101 0.18609311,7.9058696 -0.00874234,7.1000295 -0.03561112,6.4713026 0.08977686,5.6520788 0.40083219,3.6197954 1.6500946,1.8380537 3.4697133,0.83149549 4.142445,0.45936063 4.9577984,0.18850365 5.7673063,0.06824482 6.1419225,0.01259261 7.1867794,0.01257363 7.561617,0.06821223 c 1.2267271,0.18208786 2.3127092,0.65054991 3.271335,1.41116167 0.255423,0.2026627 0.814683,0.7594596 1.01525,1.0107793 0.524679,0.6574459 0.953554,1.4772702 1.20194,2.297593 0.206909,0.6833405 0.31341,1.5899378 0.257055,2.1881838 -0.158432,1.6818455 -1.351489,4.481098 -3.5532673,8.33698 -0.974812,1.707148 -2.6499392,4.415008 -2.8278048,4.571176 -0.069374,0.06091 -0.1964497,0.1124 -0.2726042,0.110455 -0.018052,-4.62e-4 -0.0704,-0.01424 -0.1163282,-0.03062 z M 6.9051619,9.5790481 C 7.1758387,9.5535595 7.4724796,9.4896074 7.6771811,9.4126103 8.8323242,8.9781116 9.585687,7.8957214 9.585687,6.670574 9.585687,5.8895442 9.3034511,5.1920039 8.761203,4.6328777 8.333405,4.1917639 7.8340382,3.9216232 7.2005667,3.7886249 6.9459748,3.7351731 6.4110875,3.7354687 6.1400914,3.7892114 4.9379658,4.0276096 4.0501577,4.9023464 3.7941061,6.1006565 3.7380306,6.3630873 3.738622,6.9778457 3.7952002,7.237626 3.9202938,7.812 4.1840818,8.3099554 4.5719861,8.7039729 c 0.5442869,0.5528647 1.22523,0.8518882 2.0377709,0.8948488 0.030088,0.00159 0.1630197,-0.00731 0.2954049,-0.019774 z"
     id="path827"
     inkscape:connector-curvature="0" />
  <path
     style="fill:#353535;fill-opacity:0.00392157;fill-rule:nonzero;stroke-width:0.02188184"
     d="M 6.5371925,19.963921 C 6.4912647,19.947541 6.4330277,19.915971 6.4077774,19.893765 6.2937017,19.793446 5.1924023,18.047068 4.3191654,16.581765 2.1203793,12.892171 0.64069626,9.7861101 0.18609311,7.9058696 -0.00874234,7.1000295 -0.03561112,6.4713026 0.08977686,5.6520788 0.40083219,3.6197954 1.6500946,1.8380537 3.4697133,0.83149549 4.142445,0.45936063 4.9577984,0.18850365 5.7673063,0.06824482 6.1419225,0.01259261 7.1867794,0.01257363 7.561617,0.06821223 c 1.2267271,0.18208786 2.3127092,0.65054991 3.271335,1.41116167 0.255423,0.2026627 0.814683,0.7594596 1.01525,1.0107793 0.524679,0.6574459 0.953554,1.4772702 1.20194,2.297593 0.206909,0.6833405 0.31341,1.5899378 0.257055,2.1881838 -0.158432,1.6818455 -1.351489,4.481098 -3.5532673,8.33698 -0.974812,1.707148 -2.6499392,4.415008 -2.8278048,4.571176 -0.069374,0.06091 -0.1964497,0.1124 -0.2726042,0.110455 -0.018052,-4.62e-4 -0.0704,-0.01424 -0.1163282,-0.03062 z M 6.9051619,9.5790481 C 7.1758387,9.5535595 7.4724796,9.4896074 7.6771811,9.4126103 8.8323242,8.9781116 9.585687,7.8957214 9.585687,6.670574 9.585687,5.8895442 9.3034511,5.1920039 8.761203,4.6328777 8.333405,4.1917639 7.8340382,3.9216232 7.2005667,3.7886249 6.9459748,3.7351731 6.4110875,3.7354687 6.1400914,3.7892114 4.9379658,4.0276096 4.0501577,4.9023464 3.7941061,6.1006565 3.7380306,6.3630873 3.738622,6.9778457 3.7952002,7.237626 3.9202938,7.812 4.1840818,8.3099554 4.5719861,8.7039729 c 0.5442869,0.5528647 1.22523,0.8518882 2.0377709,0.8948488 0.030088,0.00159 0.1630197,-0.00731 0.2954049,-0.019774 z"
     id="path829"
     inkscape:connector-curvature="0" />
  <path
     style="fill:#353535;fill-opacity:0.00392157;fill-rule:nonzero;stroke-width:0.02188184"
     d="M 6.5371925,19.963921 C 6.4912647,19.947541 6.4330277,19.915971 6.4077774,19.893765 6.2937017,19.793446 5.1924023,18.047068 4.3191654,16.581765 2.1203793,12.892171 0.64069626,9.7861101 0.18609311,7.9058696 -0.00874234,7.1000295 -0.03561112,6.4713026 0.08977686,5.6520788 0.40083219,3.6197954 1.6500946,1.8380537 3.4697133,0.83149549 4.142445,0.45936063 4.9577984,0.18850365 5.7673063,0.06824482 6.1419225,0.01259261 7.1867794,0.01257363 7.561617,0.06821223 c 1.2267271,0.18208786 2.3127092,0.65054991 3.271335,1.41116167 0.255423,0.2026627 0.814683,0.7594596 1.01525,1.0107793 0.524679,0.6574459 0.953554,1.4772702 1.20194,2.297593 0.206909,0.6833405 0.31341,1.5899378 0.257055,2.1881838 -0.158432,1.6818455 -1.351489,4.481098 -3.5532673,8.33698 -0.974812,1.707148 -2.6499392,4.415008 -2.8278048,4.571176 -0.069374,0.06091 -0.1964497,0.1124 -0.2726042,0.110455 -0.018052,-4.62e-4 -0.0704,-0.01424 -0.1163282,-0.03062 z M 6.9051619,9.5790481 C 7.1758387,9.5535595 7.4724796,9.4896074 7.6771811,9.4126103 8.8323242,8.9781116 9.585687,7.8957214 9.585687,6.670574 9.585687,5.8895442 9.3034511,5.1920039 8.761203,4.6328777 8.333405,4.1917639 7.8340382,3.9216232 7.2005667,3.7886249 6.9459748,3.7351731 6.4110875,3.7354687 6.1400914,3.7892114 4.9379658,4.0276096 4.0501577,4.9023464 3.7941061,6.1006565 3.7380306,6.3630873 3.738622,6.9778457 3.7952002,7.237626 3.9202938,7.812 4.1840818,8.3099554 4.5719861,8.7039729 c 0.5442869,0.5528647 1.22523,0.8518882 2.0377709,0.8948488 0.030088,0.00159 0.1630197,-0.00731 0.2954049,-0.019774 z"
     id="path831"
     inkscape:connector-curvature="0" />
  <path
     style="fill:#353535;fill-opacity:0.00392157;fill-rule:nonzero;stroke-width:0.02188184"
     d="M 6.5371925,19.963921 C 6.4912647,19.947541 6.4330277,19.915971 6.4077774,19.893765 6.2937017,19.793446 5.1924023,18.047068 4.3191654,16.581765 2.1203793,12.892171 0.64069626,9.7861101 0.18609311,7.9058696 -0.00874234,7.1000295 -0.03561112,6.4713026 0.08977686,5.6520788 0.40083219,3.6197954 1.6500946,1.8380537 3.4697133,0.83149549 4.142445,0.45936063 4.9577984,0.18850365 5.7673063,0.06824482 6.1419225,0.01259261 7.1867794,0.01257363 7.561617,0.06821223 c 1.2267271,0.18208786 2.3127092,0.65054991 3.271335,1.41116167 0.255423,0.2026627 0.814683,0.7594596 1.01525,1.0107793 0.524679,0.6574459 0.953554,1.4772702 1.20194,2.297593 0.206909,0.6833405 0.31341,1.5899378 0.257055,2.1881838 -0.158432,1.6818455 -1.351489,4.481098 -3.5532673,8.33698 -0.974812,1.707148 -2.6499392,4.415008 -2.8278048,4.571176 -0.069374,0.06091 -0.1964497,0.1124 -0.2726042,0.110455 -0.018052,-4.62e-4 -0.0704,-0.01424 -0.1163282,-0.03062 z M 6.9051619,9.5790481 C 7.1758387,9.5535595 7.4724796,9.4896074 7.6771811,9.4126103 8.8323242,8.9781116 9.585687,7.8957214 9.585687,6.670574 9.585687,5.8895442 9.3034511,5.1920039 8.761203,4.6328777 8.333405,4.1917639 7.8340382,3.9216232 7.2005667,3.7886249 6.9459748,3.7351731 6.4110875,3.7354687 6.1400914,3.7892114 4.9379658,4.0276096 4.0501577,4.9023464 3.7941061,6.1006565 3.7380306,6.3630873 3.738622,6.9778457 3.7952002,7.237626 3.9202938,7.812 4.1840818,8.3099554 4.5719861,8.7039729 c 0.5442869,0.5528647 1.22523,0.8518882 2.0377709,0.8948488 0.030088,0.00159 0.1630197,-0.00731 0.2954049,-0.019774 z"
     id="path833"
     inkscape:connector-curvature="0" />
  <path
     style="fill:#939393;fill-opacity:0.00392157;fill-rule:nonzero;stroke-width:0.02188184"
     d="M 6.5371925,19.963921 C 6.4912647,19.947541 6.4330277,19.915971 6.4077774,19.893765 6.2937017,19.793446 5.1924023,18.047068 4.3191654,16.581765 2.1203793,12.892171 0.64069626,9.7861101 0.18609311,7.9058696 -0.00874234,7.1000295 -0.03561112,6.4713026 0.08977686,5.6520788 0.40083219,3.6197954 1.6500946,1.8380537 3.4697133,0.83149549 4.142445,0.45936063 4.9577984,0.18850365 5.7673063,0.06824482 6.1419225,0.01259261 7.1867794,0.01257363 7.561617,0.06821223 c 1.2267271,0.18208786 2.3127092,0.65054991 3.271335,1.41116167 0.255423,0.2026627 0.814683,0.7594596 1.01525,1.0107793 0.524679,0.6574459 0.953554,1.4772702 1.20194,2.297593 0.206909,0.6833405 0.31341,1.5899378 0.257055,2.1881838 -0.158432,1.6818455 -1.351489,4.481098 -3.5532673,8.33698 -0.974812,1.707148 -2.6499392,4.415008 -2.8278048,4.571176 -0.069374,0.06091 -0.1964497,0.1124 -0.2726042,0.110455 -0.018052,-4.62e-4 -0.0704,-0.01424 -0.1163282,-0.03062 z M 6.9051619,9.5790481 C 7.1758387,9.5535595 7.4724796,9.4896074 7.6771811,9.4126103 8.8323242,8.9781116 9.585687,7.8957214 9.585687,6.670574 9.585687,5.8895442 9.3034511,5.1920039 8.761203,4.6328777 8.333405,4.1917639 7.8340382,3.9216232 7.2005667,3.7886249 6.9459748,3.7351731 6.4110875,3.7354687 6.1400914,3.7892114 4.9379658,4.0276096 4.0501577,4.9023464 3.7941061,6.1006565 3.7380306,6.3630873 3.738622,6.9778457 3.7952002,7.237626 3.9202938,7.812 4.1840818,8.3099554 4.5719861,8.7039729 c 0.5442869,0.5528647 1.22523,0.8518882 2.0377709,0.8948488 0.030088,0.00159 0.1630197,-0.00731 0.2954049,-0.019774 z"
     id="path835"
     inkscape:connector-curvature="0" />
  <path
     style="fill:#808080;fill-opacity:1;fill-rule:nonzero;stroke-width:0.02188184"
     d="M 6.5371925,19.963921 C 6.4912647,19.947541 6.4330277,19.915971 6.4077774,19.893765 6.2937017,19.793446 5.1924023,18.047068 4.3191654,16.581765 2.1203793,12.892171 0.64069626,9.7861101 0.18609311,7.9058696 -0.00874234,7.1000295 -0.03561112,6.4713026 0.08977686,5.6520788 0.40083219,3.6197954 1.6500946,1.8380537 3.4697133,0.83149549 4.142445,0.45936063 4.9577984,0.18850365 5.7673063,0.06824482 6.1419225,0.01259261 7.1867794,0.01257363 7.561617,0.06821223 c 1.2267271,0.18208786 2.3127092,0.65054991 3.271335,1.41116167 0.255423,0.2026627 0.814683,0.7594596 1.01525,1.0107793 0.524679,0.6574459 0.953554,1.4772702 1.20194,2.297593 0.206909,0.6833405 0.31341,1.5899378 0.257055,2.1881838 -0.158432,1.6818455 -1.351489,4.481098 -3.5532673,8.33698 -0.974812,1.707148 -2.6499392,4.415008 -2.8278048,4.571176 -0.069374,0.06091 -0.1964497,0.1124 -0.2726042,0.110455 -0.018052,-4.62e-4 -0.0704,-0.01424 -0.1163282,-0.03062 z M 6.9051619,9.5790481 C 7.1758387,9.5535595 7.4724796,9.4896074 7.6771811,9.4126103 8.8323242,8.9781116 9.585687,7.8957214 9.585687,6.670574 9.585687,5.8895442 9.3034511,5.1920039 8.761203,4.6328777 8.333405,4.1917639 7.8340382,3.9216232 7.2005667,3.7886249 6.9459748,3.7351731 6.4110875,3.7354687 6.1400914,3.7892114 4.9379658,4.0276096 4.0501577,4.9023464 3.7941061,6.1006565 3.7380306,6.3630873 3.738622,6.9778457 3.7952002,7.237626 3.9202938,7.812 4.1840818,8.3099554 4.5719861,8.7039729 c 0.5442869,0.5528647 1.22523,0.8518882 2.0377709,0.8948488 0.030088,0.00159 0.1630197,-0.00731 0.2954049,-0.019774 z"
     id="path837"
     inkscape:connector-curvature="0" />
</svg>
