<svg xmlns="http://www.w3.org/2000/svg" viewBox="0 0 16.1021 16"><defs><style>.cls-1{fill:#858585;}</style></defs><title>morealtiРесурс 18</title><g id="Слой_2" data-name="Слой 2"><g id="Слой_2-2" data-name="Слой 2"><path class="cls-1" d="M16.1021.8915V6.2193a.8915.8915,0,0,1-.8915.8915H9.8839a.8915.8915,0,0,1-.8915-.8915V.8915A.8915.8915,0,0,1,9.8839,0h5.3268A.8915.8915,0,0,1,16.1021.8915ZM.8915,7.1112H6.2188A.8915.8915,0,0,0,7.11,6.22V.8915A.8915.8915,0,0,0,6.2188,0H.8915A.8915.8915,0,0,0,0,.8915V6.22A.8915.8915,0,0,0,.8915,7.1112ZM9.8839,16h5.3268a.8915.8915,0,0,0,.8915-.8915V9.7817a.8915.8915,0,0,0-.8915-.8915H9.8839a.8915.8915,0,0,0-.8915.8915v5.3268A.8915.8915,0,0,0,9.8839,16ZM.8915,16H6.2188a.8915.8915,0,0,0,.8915-.8915V9.7817A.8915.8915,0,0,0,6.2188,8.89H.8915A.8915.8915,0,0,0,0,9.7817v5.3268A.8915.8915,0,0,0,.8915,16Z"/></g></g></svg>