<svg xmlns="http://www.w3.org/2000/svg" viewBox="0 0 16 16"><defs><style>.cls-1{fill:#fff;}</style></defs><title>morealtiРесурс 21</title><g id="Слой_2" data-name="Слой 2"><g id="Слой_2-2" data-name="Слой 2"><path class="cls-1" d="M15.07,0H.93A.8529.8529,0,0,0,0,.7441V2.4559A.8529.8529,0,0,0,.93,3.2H15.07A.8529.8529,0,0,0,16,2.4559V.7441A.8529.8529,0,0,0,15.07,0Z"/><path class="cls-1" d="M15.07,6.4H.93A.8529.8529,0,0,0,0,7.1441V8.8559A.8529.8529,0,0,0,.93,9.6H15.07A.8529.8529,0,0,0,16,8.8559V7.1441A.8529.8529,0,0,0,15.07,6.4Z"/><path class="cls-1" d="M15.07,12.8H.93a.8529.8529,0,0,0-.93.7441v1.7118A.8529.8529,0,0,0,.93,16H15.07a.8529.8529,0,0,0,.93-.7441V13.5441A.8529.8529,0,0,0,15.07,12.8Z"/></g></g></svg>