<?xml version="1.0" encoding="utf-8"?>
<!-- Generator: Adobe Illustrator 15.1.0, SVG Export Plug-In . SVG Version: 6.00 Build 0)  -->
<!DOCTYPE svg PUBLIC "-//W3C//DTD SVG 1.1//EN" "http://www.w3.org/Graphics/SVG/1.1/DTD/svg11.dtd">
<svg version="1.1" id="Layer_1" xmlns="http://www.w3.org/2000/svg" xmlns:xlink="http://www.w3.org/1999/xlink" x="0px" y="0px"
	 width="245px" height="69px" viewBox="0 0 245 69" enable-background="new 0 0 245 69" xml:space="preserve">
<g>
	<g>
		<path fill="#FFFFFF" d="M40.97,24.779l1.446-1.446L30.961,11.877c-3.534-3.955,1.761-9.224,5.709-5.708l11.456,11.455l2.829-2.829
			L39.499,3.341c-4.418-4.418-9.625-1.804-11.59,0.161c-1.445,1.446-2.408,3.581-2.166,6.05c-2.469-0.241-4.59,0.707-6.035,2.152
			c-1.965,1.964-4.581,7.171-0.163,11.589L31,34.749l2.829-2.828L22.374,20.465c-3.515-3.948,1.754-9.243,5.709-5.709l11.456,11.455
			L40.97,24.779z"/>
	</g>
	<g>
		<path fill="#FFFFFF" d="M26.689,44.719l-1.446,1.446l11.455,11.456c3.535,3.956-1.761,9.224-5.709,5.708L19.533,51.875
			l-2.829,2.828L28.16,66.159c4.418,4.417,9.625,1.802,11.589-0.163c1.446-1.445,2.409-3.581,2.167-6.05
			c2.469,0.242,4.589-0.706,6.035-2.152c1.964-1.964,4.58-7.171,0.162-11.589L36.658,34.749l-2.828,2.829l11.455,11.455
			c3.516,3.949-1.753,9.243-5.708,5.71L28.12,43.287L26.689,44.719z"/>
	</g>
	<g>
		<path fill="#FFFFFF" d="M23.857,27.606l-1.446-1.446L10.955,37.615C7,41.149,1.731,35.854,5.246,31.905L16.702,20.45l-2.829-2.828
			L2.417,29.077C-2,33.495,0.614,38.702,2.58,40.667c1.446,1.445,3.582,2.408,6.05,2.167c-0.242,2.469,0.706,4.589,2.151,6.033
			c1.965,1.966,7.172,4.581,11.59,0.163l11.456-11.456l-2.829-2.828L19.543,46.202c-3.949,3.516-9.244-1.754-5.71-5.709
			l11.456-11.456L23.857,27.606z"/>
	</g>
	<g>
		<path fill="#FFFFFF" d="M43.798,41.891l1.446,1.446l11.456-11.456c3.956-3.535,9.225,1.761,5.709,5.71L50.955,49.045l2.828,2.83
			l11.456-11.456c4.418-4.418,1.803-9.625-0.163-11.591c-1.445-1.445-3.581-2.408-6.05-2.165c0.242-2.471-0.706-4.591-2.151-6.035
			c-1.965-1.966-7.172-4.581-11.59-0.163L33.83,31.921l2.828,2.828l11.456-11.456c3.949-3.514,9.244,1.754,5.709,5.71L42.367,40.459
			L43.798,41.891z"/>
	</g>
	
		<rect x="31.87" y="32.515" transform="matrix(0.707 -0.7072 0.7072 0.707 -14.6798 34.1485)" fill="#FFFFFF" width="4.002" height="4.551"/>
</g>
<g>
	<path fill="#FFFFFF" d="M103.372,39.01h-4.259V21.787L92.989,39.01h-3.605l-6.125-17.223V39.01H79V16.005h5.782L91.187,33.6
		l6.404-17.595h5.781V39.01z"/>
	<path fill="#FFFFFF" d="M130.666,27.615c0,3.332-1.165,6.153-3.497,8.461c-2.331,2.308-5.208,3.462-8.626,3.462
		c-3.42,0-6.296-1.154-8.627-3.462s-3.498-5.129-3.498-8.461c0-3.353,1.166-6.193,3.498-8.521s5.208-3.494,8.627-3.494
		c3.418,0,6.295,1.166,8.626,3.494C129.501,21.422,130.666,24.263,130.666,27.615z M126.407,27.522c0-2.15-0.752-3.986-2.253-5.506
		c-1.504-1.521-3.373-2.281-5.611-2.281c-2.26,0-4.135,0.755-5.627,2.266c-1.493,1.509-2.238,3.349-2.238,5.521
		c0,2.192,0.755,4.055,2.269,5.585c1.513,1.53,3.368,2.296,5.564,2.296c2.259,0,4.14-0.771,5.644-2.311
		C125.655,31.551,126.407,29.695,126.407,27.522z"/>
	<path fill="#FFFFFF" d="M148.385,23.186c0,1.866-0.527,3.409-1.584,4.633c-1.431,1.657-3.649,2.486-6.653,2.486h-2.177v8.705
		h-4.259V16.005h6.436c3.191,0,5.48,0.923,6.87,2.767C147.93,19.995,148.385,21.466,148.385,23.186z M144.127,23.154
		c0-1.222-0.466-2.071-1.399-2.55c-0.602-0.31-1.347-0.465-2.238-0.465h-2.519v6.03h2.519c1.264,0,2.187-0.258,2.767-0.775
		C143.836,24.875,144.127,24.13,144.127,23.154z"/>
	<path fill="#FFFFFF" d="M163.462,39.01h-12.341V16.005h12.341v4.135h-8.082v5.316h7.741v4.134h-7.741v5.285h8.082V39.01z"/>
	<path fill="#FFFFFF" d="M187.958,39.01h-4.692l-2.363-5.938h-8.455l-2.363,5.938h-4.694l9.575-23.005h3.419L187.958,39.01z
		 M179.285,28.938l-2.612-6.716l-2.61,6.716H179.285z"/>
	<path fill="#FFFFFF" d="M210.341,39.01h-4.693l-6.28-17.099l-6.279,17.099h-4.695l9.109-23.005h3.73L210.341,39.01z"/>
	<path fill="#FFFFFF" d="M223.491,20.14h-4.26v18.87h-4.259V20.14h-4.26v-4.135h12.778V20.14z"/>
	<path fill="#FFFFFF" d="M244.504,39.01h-4.258V22.845l-10.26,16.165h-4.258V16.005h4.258V32.17l10.26-16.165h4.258V39.01z"/>
</g>
<g>
	<path fill="#FFFFFF" d="M83.052,53v-5.167h-3.123V53H79v-5.984h4.981V53H83.052z"/>
	<path fill="#FFFFFF" d="M85.524,50.002c0-1.735,1.14-3.135,2.961-3.135s2.961,1.399,2.961,3.135c0,1.734-1.14,3.146-2.961,3.146
		S85.524,51.736,85.524,50.002z M90.468,50.002c0-1.215-0.706-2.305-1.982-2.305c-1.276,0-1.995,1.09-1.995,2.305
		c0,1.227,0.719,2.316,1.995,2.316C89.762,52.318,90.468,51.229,90.468,50.002z"/>
	<path fill="#FFFFFF" d="M93.904,52.096v3.184h-0.929v-8.264h0.929v0.892c0.434-0.606,1.177-1.04,2.02-1.04
		c1.574,0,2.664,1.189,2.664,3.135c0,1.933-1.09,3.146-2.664,3.146C95.106,53.148,94.388,52.765,93.904,52.096z M97.609,50.002
		c0-1.326-0.718-2.305-1.92-2.305c-0.731,0-1.462,0.434-1.784,0.954v2.701c0.322,0.52,1.053,0.966,1.784,0.966
		C96.891,52.318,97.609,51.327,97.609,50.002z"/>
	<path fill="#FFFFFF" d="M101.126,53v-5.167h-1.734v-0.817h4.411v0.817h-1.747V53H101.126z"/>
	<path fill="#FFFFFF" d="M108.788,53v-0.682c-0.496,0.545-1.177,0.83-1.982,0.83c-1.016,0-2.094-0.682-2.094-1.982
		c0-1.338,1.078-1.97,2.094-1.97c0.818,0,1.5,0.26,1.982,0.817v-1.078c0-0.805-0.644-1.264-1.511-1.264
		c-0.719,0-1.301,0.261-1.834,0.83l-0.434-0.644c0.645-0.669,1.413-0.991,2.391-0.991c1.264,0,2.317,0.569,2.317,2.02V53H108.788z
		 M108.788,51.736v-1.128c-0.359-0.495-0.991-0.743-1.648-0.743c-0.867,0-1.474,0.545-1.474,1.313c0,0.756,0.607,1.301,1.474,1.301
		C107.796,52.479,108.429,52.231,108.788,51.736z"/>
	<path fill="#FFFFFF" d="M110.917,52.381c0.558,0,0.904-0.645,1.14-2.416l0.384-2.949h4.163V53h-0.929v-5.167h-2.416l-0.273,2.243
		c-0.272,2.23-0.917,3.072-2.069,3.072V52.381z"/>
	<path fill="#FFFFFF" d="M121.661,53v-5.984h0.929v2.49h3.122v-2.49h0.93V53h-0.93v-2.676h-3.122V53H121.661z"/>
	<path fill="#FFFFFF" d="M128.17,50.002c0-1.735,1.239-3.135,2.949-3.135c1.809,0,2.874,1.412,2.874,3.209v0.235h-4.844
		c0.074,1.127,0.867,2.069,2.155,2.069c0.682,0,1.376-0.273,1.847-0.756l0.445,0.606c-0.595,0.595-1.399,0.917-2.379,0.917
		C129.446,53.148,128.17,51.872,128.17,50.002z M131.106,47.635c-1.276,0-1.908,1.078-1.957,1.995h3.928
		C133.064,48.738,132.47,47.635,131.106,47.635z"/>
	<path fill="#FFFFFF" d="M134.815,52.231c0.558-0.099,0.905-0.495,1.141-2.267l0.384-2.949h4.163v5.167h0.693v2.342h-0.929V53
		h-4.522v1.524h-0.93V52.231z M136.885,50.076c-0.148,1.127-0.434,1.759-0.867,2.106h3.556v-4.35h-2.416L136.885,50.076z"/>
	<path fill="#FFFFFF" d="M142.587,53v-5.984h3.295c1.054,0,1.686,0.632,1.686,1.536c0,0.719-0.458,1.202-0.967,1.363
		c0.607,0.148,1.091,0.78,1.091,1.462c0,0.967-0.645,1.623-1.747,1.623H142.587z M146.613,48.688c0-0.521-0.322-0.855-0.893-0.855
		h-2.205v1.686h2.205C146.304,49.519,146.613,49.159,146.613,48.688z M146.725,51.266c0-0.483-0.334-0.93-0.966-0.93h-2.243v1.847
		h2.243C146.354,52.183,146.725,51.835,146.725,51.266z"/>
	<path fill="#FFFFFF" d="M149.402,53v-5.984h0.929v4.572l3.135-4.572h0.917V53h-0.93v-4.658L150.294,53H149.402z"/>
	<path fill="#FFFFFF" d="M155.559,53l2.663-3.271l-2.651-2.713h1.178l2.577,2.639v-2.639h0.929v2.627l2.577-2.627h1.177
		l-2.663,2.713L164.021,53h-1.189l-2.155-2.688l-0.422,0.421V53h-0.929v-2.268l-0.422-0.421L156.748,53H155.559z"/>
	<path fill="#FFFFFF" d="M165.203,53v-5.984h0.929v4.572l3.135-4.572h0.917V53h-0.93v-4.658L166.095,53H165.203z"/>
	<path fill="#FFFFFF" d="M177.244,53v-4.696L175.299,53h-0.347l-1.958-4.696V53h-0.929v-5.984h1.227l1.833,4.436l1.81-4.436h1.239
		V53H177.244z"/>
	<path fill="#FFFFFF" d="M179.729,50.002c0-1.735,1.141-3.135,2.962-3.135s2.961,1.399,2.961,3.135c0,1.734-1.14,3.146-2.961,3.146
		S179.729,51.736,179.729,50.002z M184.673,50.002c0-1.215-0.707-2.305-1.982-2.305c-1.276,0-1.995,1.09-1.995,2.305
		c0,1.227,0.719,2.316,1.995,2.316C183.966,52.318,184.673,51.229,184.673,50.002z"/>
	<path fill="#FFFFFF" d="M186.86,50.002c0-1.772,1.202-3.135,2.986-3.135c1.091,0,1.734,0.445,2.193,1.04l-0.62,0.57
		c-0.396-0.545-0.904-0.78-1.523-0.78c-1.276,0-2.069,0.979-2.069,2.305c0,1.325,0.793,2.316,2.069,2.316
		c0.619,0,1.127-0.248,1.523-0.78l0.62,0.569c-0.459,0.596-1.103,1.041-2.193,1.041C188.063,53.148,186.86,51.786,186.86,50.002z"/>
	<path fill="#FFFFFF" d="M194.727,53v-5.167h-1.734v-0.817h4.411v0.817h-1.747V53H194.727z"/>
	<path fill="#FFFFFF" d="M198.628,53v-5.984h0.929v4.572l3.135-4.572h0.917V53h-0.93v-4.658L199.52,53H198.628z"/>
</g>
</svg>
