<?xml version="1.0" encoding="utf-8"?>
<!-- Generator: Adobe Illustrator 15.1.0, SVG Export Plug-In . SVG Version: 6.00 Build 0)  -->
<!DOCTYPE svg PUBLIC "-//W3C//DTD SVG 1.1//EN" "http://www.w3.org/Graphics/SVG/1.1/DTD/svg11.dtd">
<svg version="1.1" id="Layer_1" xmlns="http://www.w3.org/2000/svg" xmlns:xlink="http://www.w3.org/1999/xlink" x="0px" y="0px"
	 width="32px" height="211px" viewBox="0 0 32 211" enable-background="new 0 0 32 211" xml:space="preserve">
<path fill="#B9B9B9" d="M29.654,171.235c-0.091-0.61-0.451-2.063-1.123-2.744c-0.753-0.764-1.508-0.985-2.177-1.107
	C25.697,167.266,19.81,167,16,167s-9.697,0.266-10.354,0.384c-0.669,0.122-1.424,0.344-2.177,1.107
	c-0.671,0.68-1.031,2.133-1.123,2.744C2.255,171.845,2,175.729,2,177c0,1.271,0.255,5.155,0.346,5.765
	c0.091,0.61,0.451,2.063,1.123,2.744c0.753,0.764,1.508,0.985,2.177,1.107C6.303,186.734,12.19,187,16,187s9.697-0.266,10.354-0.385
	c0.669-0.122,1.424-0.344,2.177-1.107c0.671-0.68,1.031-2.133,1.123-2.744C29.745,182.154,30,178.271,30,177
	C30,175.729,29.745,171.845,29.654,171.235z M13,181.084v-9.043l8.946,4.521L13,181.084z"/>
<path fill="#1EA6AD" d="M29.654,193.235c-0.091-0.61-0.451-2.063-1.123-2.744c-0.753-0.764-1.508-0.985-2.177-1.107
	C25.697,189.266,19.81,189,16,189s-9.697,0.266-10.354,0.384c-0.669,0.122-1.424,0.344-2.177,1.107
	c-0.671,0.68-1.031,2.133-1.123,2.744C2.255,193.845,2,197.729,2,199c0,1.271,0.255,5.155,0.346,5.765
	c0.091,0.61,0.451,2.063,1.123,2.744c0.753,0.764,1.508,0.985,2.177,1.107C6.303,208.734,12.19,209,16,209s9.697-0.266,10.354-0.385
	c0.669-0.122,1.424-0.344,2.177-1.107c0.671-0.68,1.031-2.133,1.123-2.744C29.745,204.154,30,200.271,30,199
	C30,197.729,29.745,193.845,29.654,193.235z M13,203.084v-9.043l8.946,4.521L13,203.084z"/>
<path fill="#383635" d="M16,2c-4.97,0-9,4.03-9,9c0,7.111,9,15,9,15s9-8.111,9-15C25,6.03,20.97,2,16,2z M16,15.874
	c-2.7,0-4.889-2.189-4.889-4.889c0-2.701,2.188-4.89,4.889-4.89s4.889,2.188,4.889,4.89C20.889,13.685,18.7,15.874,16,15.874z"/>
<path fill="#1EA6AD" d="M12.145,28.164l1.564,4.117c0.089,0.301-0.241,0.527-0.241,0.527s-1.956,1.222-2.286,1.447
	c-0.33,0.227-0.126,0.689-0.126,0.689s0.54,1.803,1.689,3.428c1.149,1.626,2.945,3.035,3.165,3.261
	c0.34,0.354,0.725-0.014,0.725-0.014s1.705-1.401,1.866-1.52c0.301-0.223,0.725-0.015,0.725-0.015s3.045,2.483,3.265,2.71
	c0.341,0.353-0.165,1.545-0.846,2.27c-0.649,0.689-2.351,1.007-3.637,0.924c-1.285-0.084-5.239-2.337-7.828-6.219
	c-2.492-3.731-2.893-6.339-2.391-9.1c0.2-1.094,1.382-2.033,2.017-2.347C10.441,28.006,12.026,27.868,12.145,28.164z"/>
<g>
	<polygon fill="#1EA6AD" points="15.828,54.5 16,54.655 16.172,54.5 17.667,53.155 23.394,48 8.606,48 14.333,53.155 	"/>
	<polygon fill="#1EA6AD" points="25,59.755 25,49.245 19.161,54.5 	"/>
	<polygon fill="#1EA6AD" points="7,49.245 7,59.755 12.839,54.5 	"/>
	<polygon fill="#1EA6AD" points="16,57.345 14.333,55.845 8.606,61 23.394,61 17.667,55.845 	"/>
</g>
<g>
	<path fill="#1EA6AD" d="M16,143.163c3.204,0,3.584,0.012,4.849,0.069c1.17,0.053,1.805,0.25,2.229,0.414
		c0.56,0.217,0.959,0.477,1.379,0.897c0.42,0.42,0.68,0.819,0.897,1.379c0.164,0.423,0.36,1.059,0.413,2.229
		c0.058,1.265,0.07,1.645,0.07,4.849s-0.013,3.584-0.07,4.849c-0.053,1.17-0.249,1.806-0.413,2.229
		c-0.217,0.56-0.478,0.959-0.897,1.379c-0.42,0.42-0.819,0.68-1.379,0.897c-0.423,0.164-1.059,0.36-2.229,0.414
		c-1.265,0.058-1.644,0.069-4.849,0.069s-3.584-0.012-4.849-0.069c-1.17-0.053-1.805-0.25-2.229-0.414
		c-0.56-0.217-0.959-0.477-1.379-0.897c-0.42-0.42-0.68-0.819-0.897-1.379c-0.164-0.423-0.36-1.059-0.414-2.229
		c-0.057-1.265-0.07-1.645-0.07-4.849s0.013-3.584,0.07-4.849c0.053-1.17,0.25-1.806,0.414-2.229
		c0.217-0.56,0.478-0.959,0.897-1.379c0.42-0.42,0.819-0.68,1.379-0.897c0.423-0.164,1.059-0.36,2.229-0.414
		C12.416,143.174,12.796,143.163,16,143.163 M16,141c-3.259,0-3.668,0.014-4.947,0.072c-1.278,0.059-2.15,0.261-2.914,0.558
		c-0.789,0.307-1.458,0.717-2.125,1.384c-0.667,0.667-1.078,1.336-1.384,2.125c-0.297,0.763-0.5,1.636-0.558,2.914
		C4.014,149.332,4,149.741,4,153s0.014,3.668,0.072,4.947c0.059,1.278,0.261,2.15,0.558,2.914c0.307,0.789,0.717,1.458,1.384,2.125
		c0.667,0.667,1.336,1.078,2.125,1.384c0.763,0.296,1.636,0.5,2.914,0.558C12.332,164.986,12.741,165,16,165
		s3.668-0.014,4.947-0.072c1.278-0.059,2.15-0.262,2.914-0.558c0.789-0.307,1.458-0.717,2.125-1.384
		c0.667-0.667,1.078-1.336,1.384-2.125c0.296-0.763,0.5-1.636,0.558-2.914C27.986,156.668,28,156.259,28,153
		s-0.014-3.668-0.072-4.947c-0.058-1.278-0.261-2.15-0.558-2.914c-0.307-0.789-0.717-1.458-1.384-2.125
		c-0.667-0.667-1.336-1.078-2.125-1.384c-0.763-0.297-1.636-0.5-2.914-0.558C19.668,141.014,19.259,141,16,141"/>
	<path fill="#1EA6AD" d="M16,147c-3.314,0-6,2.686-6,6s2.686,6,6,6s6-2.686,6-6S19.314,147,16,147 M16,156.895
		c-2.151,0-3.895-1.743-3.895-3.895s1.744-3.895,3.895-3.895s3.895,1.743,3.895,3.895S18.151,156.895,16,156.895"/>
	<path fill="#1EA6AD" d="M23.846,146.594c0,0.795-0.646,1.44-1.44,1.44c-0.795,0-1.44-0.645-1.44-1.44c0-0.795,0.645-1.44,1.44-1.44
		C23.201,145.154,23.846,145.799,23.846,146.594"/>
</g>
<g>
	<path fill="#B9B9B9" d="M16,117.163c3.204,0,3.584,0.012,4.849,0.069c1.17,0.053,1.805,0.25,2.229,0.414
		c0.56,0.217,0.959,0.477,1.379,0.897c0.42,0.42,0.68,0.819,0.897,1.379c0.164,0.423,0.36,1.059,0.413,2.229
		c0.058,1.265,0.07,1.645,0.07,4.849s-0.013,3.584-0.07,4.849c-0.053,1.17-0.249,1.806-0.413,2.229
		c-0.217,0.56-0.478,0.959-0.897,1.379c-0.42,0.42-0.819,0.68-1.379,0.897c-0.423,0.164-1.059,0.36-2.229,0.414
		c-1.265,0.058-1.644,0.069-4.849,0.069s-3.584-0.012-4.849-0.069c-1.17-0.053-1.805-0.25-2.229-0.414
		c-0.56-0.217-0.959-0.477-1.379-0.897c-0.42-0.42-0.68-0.819-0.897-1.379c-0.164-0.423-0.36-1.059-0.414-2.229
		c-0.057-1.265-0.07-1.645-0.07-4.849s0.013-3.584,0.07-4.849c0.053-1.17,0.25-1.806,0.414-2.229
		c0.217-0.56,0.478-0.959,0.897-1.379c0.42-0.42,0.819-0.68,1.379-0.897c0.423-0.164,1.059-0.36,2.229-0.414
		C12.416,117.174,12.796,117.163,16,117.163 M16,115c-3.259,0-3.668,0.014-4.947,0.072c-1.278,0.059-2.15,0.261-2.914,0.558
		c-0.789,0.307-1.458,0.717-2.125,1.384c-0.667,0.667-1.078,1.336-1.384,2.125c-0.297,0.763-0.5,1.636-0.558,2.914
		C4.014,123.332,4,123.741,4,127s0.014,3.668,0.072,4.947c0.059,1.278,0.261,2.15,0.558,2.914c0.307,0.789,0.717,1.458,1.384,2.125
		c0.667,0.667,1.336,1.078,2.125,1.384c0.763,0.296,1.636,0.5,2.914,0.558C12.332,138.986,12.741,139,16,139
		s3.668-0.014,4.947-0.072c1.278-0.059,2.15-0.262,2.914-0.558c0.789-0.307,1.458-0.717,2.125-1.384
		c0.667-0.667,1.078-1.336,1.384-2.125c0.296-0.763,0.5-1.636,0.558-2.914C27.986,130.668,28,130.259,28,127
		s-0.014-3.668-0.072-4.947c-0.058-1.278-0.261-2.15-0.558-2.914c-0.307-0.789-0.717-1.458-1.384-2.125
		c-0.667-0.667-1.336-1.078-2.125-1.384c-0.763-0.297-1.636-0.5-2.914-0.558C19.668,115.014,19.259,115,16,115"/>
	<path fill="#B9B9B9" d="M16,121c-3.314,0-6,2.686-6,6s2.686,6,6,6s6-2.686,6-6S19.314,121,16,121 M16,130.895
		c-2.151,0-3.895-1.743-3.895-3.895s1.744-3.895,3.895-3.895s3.895,1.743,3.895,3.895S18.151,130.895,16,130.895"/>
	<path fill="#B9B9B9" d="M23.846,120.594c0,0.795-0.646,1.44-1.44,1.44c-0.795,0-1.44-0.645-1.44-1.44c0-0.795,0.645-1.44,1.44-1.44
		C23.201,119.154,23.846,119.799,23.846,120.594"/>
</g>
<path fill="#B9B9B9" d="M18,87V76h3.5l0.5-4h-4v-3c0-1.231,0.235-2,2-2h2v-3.75C21.611,63.198,20.554,63,19,63c-3.245,0-5,2.363-5,6
	v3h-4v4h4v11H18z"/>
<path fill="#1EA6AD" d="M18,113v-11h3.5l0.5-4h-4v-3c0-1.231,0.235-2,2-2h2v-3.75C21.611,89.198,20.554,89,19,89
	c-3.245,0-5,2.363-5,6v3h-4v4h4v11H18z"/>
</svg>
