<svg id="Слой_1" data-name="Слой 1" xmlns="http://www.w3.org/2000/svg" viewBox="0 0 27.5 22"><defs><style>.cls-1{fill:#fff;}</style></defs><title>photo-prevМонтажная область 1</title><g id="Слой_2" data-name="Слой 2"><g id="Слой_2-2" data-name="Слой 2-2"><path class="cls-1" d="M13.75,8.6447a3.533,3.533,0,1,0,3.5114,3.533A3.5223,3.5223,0,0,0,13.75,8.6447Zm9.3639-3.533H20.3047a1.043,1.043,0,0,1-.9245-.67l-.7261-2.1926a1.0436,1.0436,0,0,0-.9245-.67H9.77a1.043,1.043,0,0,0-.9245.67L8.12,4.4416a1.0436,1.0436,0,0,1-.9245.67H4.3861A2.3551,2.3551,0,0,0,2.0452,7.467V18.0659a2.3551,2.3551,0,0,0,2.341,2.3553H23.1139a2.3551,2.3551,0,0,0,2.341-2.3553V7.467A2.3551,2.3551,0,0,0,23.1139,5.1117ZM13.75,18.0659a5.8884,5.8884,0,1,1,5.8524-5.8883A5.87,5.87,0,0,1,13.75,18.0659Zm8.5445-8.9518a.8244.8244,0,1,1,.8193-.8244h0A.8219.8219,0,0,1,22.2945,9.1141Z"/></g></g></svg>